<?xml version="1.0" encoding="UTF-8"?>
<!DOCTYPE svg PUBLIC "-//W3C//DTD SVG 1.1//EN" "http://www.w3.org/Graphics/SVG/1.1/DTD/svg11.dtd">
<svg xmlns="http://www.w3.org/2000/svg" version="1.1" width="612px" height="408px" style="shape-rendering:geometricPrecision; text-rendering:geometricPrecision; image-rendering:optimizeQuality; fill-rule:evenodd; clip-rule:evenodd" xmlns:xlink="http://www.w3.org/1999/xlink">
<g><path style="opacity:1" fill="#b58776" d="M 336.5,172.5 C 337.629,174.628 337.796,176.961 337,179.5C 333.445,184.275 331.279,189.608 330.5,195.5C 330.988,198.661 331.988,201.661 333.5,204.5C 336.101,205.979 338.934,206.979 342,207.5C 346.259,206.077 350.426,204.41 354.5,202.5C 354.325,204.621 354.659,206.621 355.5,208.5C 355.827,213.544 355.494,218.544 354.5,223.5C 349.981,230.437 343.647,234.937 335.5,237C 328.624,237.931 321.957,237.431 315.5,235.5C 315.314,231.279 314.314,227.279 312.5,223.5C 312.672,222.508 312.338,221.842 311.5,221.5C 311.682,219.409 311.348,217.409 310.5,215.5C 296.587,212.716 288.254,204.383 285.5,190.5C 285.529,184.591 284.862,178.757 283.5,173C 283.833,171.833 284.167,170.667 284.5,169.5C 285.981,173.353 288.148,174.02 291,171.5C 291.498,168.518 291.665,165.518 291.5,162.5C 292.239,162.631 292.906,162.464 293.5,162C 292.584,161.722 291.918,161.222 291.5,160.5C 293.744,158.32 293.411,156.154 290.5,154C 287.447,153.821 284.447,153.321 281.5,152.5C 281.709,151.914 282.043,151.414 282.5,151C 286.653,150.616 290.653,149.616 294.5,148C 296.574,144.979 297.907,141.645 298.5,138C 302.996,138.946 307.329,138.279 311.5,136C 313.5,135.333 315.5,135.333 317.5,136C 321.238,138.636 325.238,140.803 329.5,142.5C 329.833,143.5 330.167,144.5 330.5,145.5C 328.978,150.231 327.978,155.064 327.5,160C 327.833,161.833 328.167,163.667 328.5,165.5C 330.677,166.676 332.011,168.51 332.5,171C 333.901,171.41 335.234,171.91 336.5,172.5 Z"/></g>
<g><path style="opacity:0.329" fill="#b28cb5" d="M 496.5,163.5 C 495.542,163.047 494.708,162.381 494,161.5C 493.57,164.192 493.737,166.859 494.5,169.5C 492.735,166.877 492.068,163.877 492.5,160.5C 494.973,160.088 496.306,161.088 496.5,163.5 Z"/></g>
<g><path style="opacity:0.063" fill="#c7acc8" d="M 506.5,174.5 C 505.833,173.833 505.167,173.167 504.5,172.5C 503.519,167.871 503.352,163.204 504,158.5C 504.196,156.714 505.029,155.381 506.5,154.5C 506.867,161.234 506.867,167.901 506.5,174.5 Z"/></g>
<g><path style="opacity:1" fill="#a162ab" d="M 496.5,163.5 C 499.709,166.228 502.209,169.561 504,173.5C 504.399,173.272 504.565,172.938 504.5,172.5C 505.167,173.167 505.833,173.833 506.5,174.5C 506.5,174.833 506.5,175.167 506.5,175.5C 505.691,177.013 505.524,178.68 506,180.5C 505.329,179.748 504.496,179.414 503.5,179.5C 499.788,176.789 496.788,173.456 494.5,169.5C 493.737,166.859 493.57,164.192 494,161.5C 494.708,162.381 495.542,163.047 496.5,163.5 Z"/></g>
<g><path style="opacity:1" fill="#283238" d="M 359.5,198.5 C 356.941,195.667 355.608,196.334 355.5,200.5C 351.649,202.444 347.483,203.777 343,204.5C 340.189,204.297 337.522,203.631 335,202.5C 334.125,201.127 333.625,199.627 333.5,198C 335.244,195.043 336.911,191.876 338.5,188.5C 336.004,186.095 336.171,183.762 339,181.5C 340.799,174.303 338.799,168.636 333,164.5C 331.052,158.265 331.718,152.265 335,146.5C 335.202,148.256 335.702,149.922 336.5,151.5C 337.189,146.282 337.856,141.116 338.5,136C 338.167,135.833 337.833,135.667 337.5,135.5C 335.619,137.734 334.786,140.067 335,142.5C 333.257,140.679 331.757,138.679 330.5,136.5C 327.17,135.906 323.836,135.24 320.5,134.5C 319.469,133.3 318.635,131.966 318,130.5C 317.536,131.094 317.369,131.761 317.5,132.5C 316.609,131.89 315.609,131.557 314.5,131.5C 308.196,132.26 301.863,132.593 295.5,132.5C 295.897,143.603 290.564,148.769 279.5,148C 278.421,148.956 277.255,149.789 276,150.5C 276.737,158.115 277.57,165.782 278.5,173.5C 280.019,180.997 282.019,188.331 284.5,195.5C 284.392,196.442 284.059,197.275 283.5,198C 287.308,200.767 290.308,204.267 292.5,208.5C 296.353,212.52 301.02,215.02 306.5,216C 308.384,217.049 309.718,218.549 310.5,220.5C 305.779,219.732 301.779,220.899 298.5,224C 292.708,227.336 287.042,227.17 281.5,223.5C 280.817,223.863 280.15,224.196 279.5,224.5C 277.487,222.503 275.154,220.836 272.5,219.5C 257.003,223.851 250.17,217.851 252,201.5C 242.746,194.485 240.746,185.819 246,175.5C 250.352,172.145 254.352,168.479 258,164.5C 258.935,162.091 259.435,159.591 259.5,157C 257.633,148.537 258.466,140.37 262,132.5C 263.5,131 265,129.5 266.5,128C 271.833,126 277.167,124 282.5,122C 285.731,116.101 289.731,110.768 294.5,106C 302.471,100.942 310.804,100.275 319.5,104C 323.786,107.072 326.119,111.239 326.5,116.5C 333.741,114.223 340.074,115.723 345.5,121C 349.356,120.507 352.856,121.673 356,124.5C 357.677,127.853 359.843,130.853 362.5,133.5C 366.322,135.041 369.822,137.041 373,139.5C 373.808,141.423 374.308,143.423 374.5,145.5C 372.755,151.068 371.422,156.735 370.5,162.5C 370.818,165.956 371.652,169.289 373,172.5C 373.667,175.833 373.667,179.167 373,182.5C 369.011,188.317 364.511,193.651 359.5,198.5 Z"/></g>
<g><path style="opacity:1" fill="#a9897d" d="M 314.5,131.5 C 315.609,131.557 316.609,131.89 317.5,132.5C 318.028,133.721 318.695,134.887 319.5,136C 322.833,137.333 326.167,138.667 329.5,140C 330.701,140.903 331.535,142.069 332,143.5C 331.179,148.489 330.012,153.489 328.5,158.5C 328.667,159.5 328.833,160.5 329,161.5C 331.52,165.224 334.02,168.891 336.5,172.5C 335.234,171.91 333.901,171.41 332.5,171C 332.011,168.51 330.677,166.676 328.5,165.5C 328.167,163.667 327.833,161.833 327.5,160C 327.978,155.064 328.978,150.231 330.5,145.5C 330.167,144.5 329.833,143.5 329.5,142.5C 325.238,140.803 321.238,138.636 317.5,136C 315.5,135.333 313.5,135.333 311.5,136C 307.329,138.279 302.996,138.946 298.5,138C 297.907,141.645 296.574,144.979 294.5,148C 290.653,149.616 286.653,150.616 282.5,151C 282.043,151.414 281.709,151.914 281.5,152.5C 284.447,153.321 287.447,153.821 290.5,154C 293.411,156.154 293.744,158.32 291.5,160.5C 288.039,159.889 285.372,161.056 283.5,164C 284.094,164.464 284.761,164.631 285.5,164.5C 286.99,162.72 288.99,162.054 291.5,162.5C 291.665,165.518 291.498,168.518 291,171.5C 288.148,174.02 285.981,173.353 284.5,169.5C 284.167,170.667 283.833,171.833 283.5,173C 284.862,178.757 285.529,184.591 285.5,190.5C 281.719,177.825 279.219,164.825 278,151.5C 282.219,149.381 286.719,147.881 291.5,147C 293.979,143.062 296.312,139.062 298.5,135C 302.167,134.667 305.833,134.333 309.5,134C 311.491,133.626 313.158,132.793 314.5,131.5 Z"/></g>
<g><path style="opacity:1" fill="#584138" d="M 291.5,160.5 C 291.918,161.222 292.584,161.722 293.5,162C 292.906,162.464 292.239,162.631 291.5,162.5C 288.99,162.054 286.99,162.72 285.5,164.5C 284.761,164.631 284.094,164.464 283.5,164C 285.372,161.056 288.039,159.889 291.5,160.5 Z"/></g>
<g><path style="opacity:1" fill="#403228" d="M 313.5,158.5 C 317.138,157.737 318.638,159.07 318,162.5C 314.331,164.009 312.831,162.676 313.5,158.5 Z"/></g>
<g><path style="opacity:1" fill="#423029" d="M 285.5,155.5 C 287.75,155.181 289.75,155.681 291.5,157C 289.162,157.837 286.828,158.67 284.5,159.5C 283.833,159.167 283.167,158.833 282.5,158.5C 283.34,157.265 284.34,156.265 285.5,155.5 Z"/></g>
<g><path style="opacity:1" fill="#5b403a" d="M 314.5,154.5 C 316.924,154.192 319.257,154.526 321.5,155.5C 318.163,156.089 314.996,157.089 312,158.5C 311.333,157.833 311.333,157.167 312,156.5C 312.995,155.934 313.828,155.267 314.5,154.5 Z"/></g>
<g><path style="opacity:1" fill="#43332a" d="M 311.5,149.5 C 314.187,149.336 316.854,149.503 319.5,150C 320.308,150.308 320.975,150.808 321.5,151.5C 317.541,152.66 313.541,152.827 309.5,152C 310.381,151.292 311.047,150.458 311.5,149.5 Z"/></g>
<g><path style="opacity:1" fill="#412f2b" d="M 285.5,164.5 C 289.138,163.737 290.638,165.07 290,168.5C 286.331,170.009 284.831,168.676 285.5,164.5 Z"/></g>
<g><path style="opacity:1" fill="#373331" d="M 314.5,131.5 C 313.158,132.793 311.491,133.626 309.5,134C 305.833,134.333 302.167,134.667 298.5,135C 296.312,139.062 293.979,143.062 291.5,147C 286.719,147.881 282.219,149.381 278,151.5C 279.219,164.825 281.719,177.825 285.5,190.5C 288.254,204.383 296.587,212.716 310.5,215.5C 311.348,217.409 311.682,219.409 311.5,221.5C 310.833,221.5 310.5,221.167 310.5,220.5C 309.718,218.549 308.384,217.049 306.5,216C 301.02,215.02 296.353,212.52 292.5,208.5C 290.308,204.267 287.308,200.767 283.5,198C 284.059,197.275 284.392,196.442 284.5,195.5C 282.019,188.331 280.019,180.997 278.5,173.5C 277.57,165.782 276.737,158.115 276,150.5C 277.255,149.789 278.421,148.956 279.5,148C 290.564,148.769 295.897,143.603 295.5,132.5C 301.863,132.593 308.196,132.26 314.5,131.5 Z"/></g>
<g><path style="opacity:1" fill="#6d493b" d="M 300.5,158.5 C 301.156,159.622 301.489,160.955 301.5,162.5C 300.396,168.458 299.729,174.458 299.5,180.5C 300.873,180.343 302.207,180.51 303.5,181C 301.527,181.495 299.527,181.662 297.5,181.5C 298.391,173.819 299.391,166.152 300.5,158.5 Z"/></g>
<g><path style="opacity:0.89" fill="#aa79b2" d="M 518.5,178.5 C 518.808,176.076 518.474,173.743 517.5,171.5C 516.914,171.709 516.414,172.043 516,172.5C 515.818,175.226 515.318,177.893 514.5,180.5C 513.817,180.863 513.15,181.196 512.5,181.5C 512.5,181.167 512.5,180.833 512.5,180.5C 512.281,175.94 513.948,172.273 517.5,169.5C 518.086,169.709 518.586,170.043 519,170.5C 519.801,173.367 519.634,176.034 518.5,178.5 Z"/></g>
<g><path style="opacity:1" fill="#9b5ba8" d="M 518.5,178.5 C 518.296,181.518 517.963,184.518 517.5,187.5C 515.907,188.348 514.74,189.681 514,191.5C 512.595,188.381 512.095,185.048 512.5,181.5C 513.15,181.196 513.817,180.863 514.5,180.5C 515.318,177.893 515.818,175.226 516,172.5C 516.414,172.043 516.914,171.709 517.5,171.5C 518.474,173.743 518.808,176.076 518.5,178.5 Z"/></g>
<g><path style="opacity:1" fill="#5f3426" d="M 313.5,181.5 C 315.693,187.154 313.693,189.987 307.5,190C 311.276,188.395 313.276,185.562 313.5,181.5 Z"/></g>
<g><path style="opacity:1" fill="#313133" d="M 359.5,198.5 C 357.833,199.833 356.167,201.167 354.5,202.5C 350.426,204.41 346.259,206.077 342,207.5C 338.934,206.979 336.101,205.979 333.5,204.5C 331.988,201.661 330.988,198.661 330.5,195.5C 331.279,189.608 333.445,184.275 337,179.5C 337.796,176.961 337.629,174.628 336.5,172.5C 334.02,168.891 331.52,165.224 329,161.5C 328.833,160.5 328.667,159.5 328.5,158.5C 330.012,153.489 331.179,148.489 332,143.5C 331.535,142.069 330.701,140.903 329.5,140C 326.167,138.667 322.833,137.333 319.5,136C 318.695,134.887 318.028,133.721 317.5,132.5C 317.369,131.761 317.536,131.094 318,130.5C 318.635,131.966 319.469,133.3 320.5,134.5C 323.836,135.24 327.17,135.906 330.5,136.5C 331.757,138.679 333.257,140.679 335,142.5C 334.786,140.067 335.619,137.734 337.5,135.5C 337.833,135.667 338.167,135.833 338.5,136C 337.856,141.116 337.189,146.282 336.5,151.5C 335.702,149.922 335.202,148.256 335,146.5C 331.718,152.265 331.052,158.265 333,164.5C 338.799,168.636 340.799,174.303 339,181.5C 336.171,183.762 336.004,186.095 338.5,188.5C 336.911,191.876 335.244,195.043 333.5,198C 333.625,199.627 334.125,201.127 335,202.5C 337.522,203.631 340.189,204.297 343,204.5C 347.483,203.777 351.649,202.444 355.5,200.5C 355.608,196.334 356.941,195.667 359.5,198.5 Z"/></g>
<g><path style="opacity:1" fill="#2b353b" d="M 181.5,215.5 C 180.022,215.762 178.689,215.429 177.5,214.5C 179.847,208.887 180.013,203.22 178,197.5C 177.852,203.249 177.186,208.915 176,214.5C 173.534,215.777 171.034,215.777 168.5,214.5C 169.954,208.106 169.787,201.773 168,195.5C 168.728,202.138 168.561,208.805 167.5,215.5C 137.507,216.284 107.507,216.618 77.5,216.5C 76.7321,215.737 76.2321,214.737 76,213.5C 75.6667,208.5 75.3333,203.5 75,198.5C 73.2913,204.438 73.1247,210.438 74.5,216.5C 72.5,216.167 70.5,215.833 68.5,215.5C 66.683,210.663 66.183,205.663 67,200.5C 68.1217,198.376 69.6217,196.543 71.5,195C 108.487,193.48 145.487,193.147 182.5,194C 184.941,196.653 185.941,199.82 185.5,203.5C 185.929,208.214 184.596,212.214 181.5,215.5 Z"/></g>
<g><path style="opacity:1" fill="#4f5a61" d="M 87.5,196.5 C 87.5433,201.285 87.71,206.285 88,211.5C 89.241,212.877 89.4077,214.21 88.5,215.5C 84.9419,209.358 84.6086,203.024 87.5,196.5 Z"/></g>
<g><path style="opacity:0.808" fill="#9e66ab" d="M 515.5,200.5 C 515.5,201.167 515.833,201.5 516.5,201.5C 516.803,205.774 518.47,209.441 521.5,212.5C 521.376,213.107 521.043,213.44 520.5,213.5C 513.301,209.633 508.301,203.8 505.5,196C 506.047,195.075 506.713,194.242 507.5,193.5C 510.186,195.856 512.853,198.189 515.5,200.5 Z"/></g>
<g><path style="opacity:0.125" fill="#a285ab" d="M 506.5,175.5 C 507.731,178.961 509.231,182.294 511,185.5C 511.198,183.618 511.698,181.952 512.5,180.5C 512.5,180.833 512.5,181.167 512.5,181.5C 512.095,185.048 512.595,188.381 514,191.5C 514.74,189.681 515.907,188.348 517.5,187.5C 516.054,190.001 515.554,192.667 516,195.5C 517.667,198.167 519.333,200.833 521,203.5C 522.183,207.852 523.683,211.852 525.5,215.5C 522.571,217.771 520.904,220.771 520.5,224.5C 520.64,226.03 521.307,227.03 522.5,227.5C 520.362,233.915 518.029,240.249 515.5,246.5C 514.675,250.647 514.175,254.981 514,259.5C 513.819,256.305 513.319,253.305 512.5,250.5C 510.833,247.167 509.167,243.833 507.5,240.5C 509.384,240.712 510.717,241.712 511.5,243.5C 512.984,242.533 513.984,241.2 514.5,239.5C 517.903,231.26 519.903,222.594 520.5,213.5C 521.043,213.44 521.376,213.107 521.5,212.5C 518.47,209.441 516.803,205.774 516.5,201.5C 515.833,201.5 515.5,201.167 515.5,200.5C 510.739,193.984 506.739,186.984 503.5,179.5C 504.496,179.414 505.329,179.748 506,180.5C 505.524,178.68 505.691,177.013 506.5,175.5 Z"/></g>
<g><path style="opacity:1" fill="#465056" d="M 112.5,207.5 C 121.192,207.169 129.859,207.502 138.5,208.5C 129.518,209.665 120.518,209.832 111.5,209C 112.056,208.617 112.389,208.117 112.5,207.5 Z"/></g>
<g><path style="opacity:1" fill="#a76856" d="M 333.5,204.5 C 333.414,205.496 333.748,206.329 334.5,207C 331.167,209 328.5,211.667 326.5,215C 322.269,217.897 317.769,218.73 313,217.5C 312.219,216.056 312.386,214.723 313.5,213.5C 320.431,211.033 327.098,208.033 333.5,204.5 Z"/></g>
<g><path style="opacity:1" fill="#b969c6" d="M 411.5,230.5 C 409.143,230.337 406.81,230.503 404.5,231C 403.37,233.428 401.87,235.595 400,237.5C 398.961,235.254 397.794,233.087 396.5,231C 393.542,230.432 390.875,229.265 388.5,227.5C 387.713,228.242 387.047,229.075 386.5,230C 389.377,231.127 392.377,231.794 395.5,232C 396.808,234.795 398.474,237.295 400.5,239.5C 402.58,237.007 404.414,234.341 406,231.5C 407.956,231.784 410.123,231.784 412.5,231.5C 413.167,231.5 413.833,231.5 414.5,231.5C 417.579,234.65 419.913,238.317 421.5,242.5C 422.592,247.355 424.259,252.022 426.5,256.5C 426.5,258.167 426.5,259.833 426.5,261.5C 425.022,261.238 423.689,261.571 422.5,262.5C 422.583,264.092 422.249,265.759 421.5,267.5C 423.082,270.424 425.082,273.091 427.5,275.5C 424.633,276.774 421.633,277.607 418.5,278C 416.709,280.414 415.043,282.914 413.5,285.5C 409.459,284.072 406.626,281.405 405,277.5C 404.692,278.308 404.192,278.975 403.5,279.5C 401.576,279.894 399.743,279.227 398,277.5C 397.667,277.833 397.333,278.167 397,278.5C 398.871,285.899 399.704,293.566 399.5,301.5C 398.736,299.26 397.902,296.927 397,294.5C 395.303,295.364 394.137,296.697 393.5,298.5C 394.482,301.096 395.149,303.762 395.5,306.5C 394.07,306.579 392.736,306.246 391.5,305.5C 390.571,306.689 390.238,308.022 390.5,309.5C 381.922,308.941 376.255,312.608 373.5,320.5C 371.5,321.167 369.5,321.833 367.5,322.5C 365.801,322.66 364.134,322.494 362.5,322C 360.709,319.586 359.043,317.086 357.5,314.5C 356.667,315.5 355.833,316.5 355,317.5C 354.149,320.208 353.649,322.708 353.5,325C 351.652,324.538 349.652,324.038 347.5,323.5C 345.117,323.361 343.117,324.028 341.5,325.5C 333.963,327.847 326.296,330.013 318.5,332C 313.566,335.098 309.899,339.265 307.5,344.5C 307.158,345.338 306.492,345.672 305.5,345.5C 302.167,345.5 298.833,345.5 295.5,345.5C 293.75,336.037 290.417,327.371 285.5,319.5C 283.873,312.683 281.873,306.017 279.5,299.5C 275.991,290.486 272.491,281.486 269,272.5C 267.792,276.939 267.292,281.439 267.5,286C 267.096,289.096 268.429,290.929 271.5,291.5C 270.148,292.524 268.815,293.524 267.5,294.5C 265.47,293.728 263.637,294.394 262,296.5C 261.667,298.833 261.333,301.167 261,303.5C 257.471,298.937 252.971,297.271 247.5,298.5C 249.207,296.358 250.041,294.025 250,291.5C 247.973,294.221 246.473,297.221 245.5,300.5C 248.665,300.551 251.998,300.718 255.5,301C 257.641,302.308 259.641,303.808 261.5,305.5C 262.522,302.559 263.355,299.559 264,296.5C 264.671,295.748 265.504,295.414 266.5,295.5C 265.836,300.473 265.503,305.473 265.5,310.5C 263.983,313.342 262.983,316.342 262.5,319.5C 259.924,320.903 257.757,322.903 256,325.5C 254.812,324.437 254.312,323.103 254.5,321.5C 252.833,321.5 251.167,321.5 249.5,321.5C 249.343,322.873 249.51,324.207 250,325.5C 253.184,326.406 254.017,328.239 252.5,331C 250.613,331.163 249.113,330.329 248,328.5C 247.978,318.897 243.145,314.397 233.5,315C 231.932,312.696 230.765,310.196 230,307.5C 229.329,306.748 228.496,306.414 227.5,306.5C 227.5,306.167 227.5,305.833 227.5,305.5C 227.662,303.473 227.495,301.473 227,299.5C 223.952,298.481 222.619,296.481 223,293.5C 236.678,277.474 250.845,261.641 265.5,246C 267.235,245.349 268.902,245.515 270.5,246.5C 271.314,244.234 271.814,241.9 272,239.5C 274.826,237.694 276.992,235.361 278.5,232.5C 283.592,230.831 288.925,229.997 294.5,230C 298.292,228.363 301.959,226.53 305.5,224.5C 311.282,225.801 313.782,229.468 313,235.5C 328.865,243.258 343.031,240.925 355.5,228.5C 357.211,222.977 357.878,217.31 357.5,211.5C 362.789,209.676 368.289,208.676 374,208.5C 377.167,208.833 380.333,209.167 383.5,209.5C 389.293,212.379 395.293,215.213 401.5,218C 401.947,221.564 403.947,223.564 407.5,224C 408.719,226.278 410.052,228.445 411.5,230.5 Z"/></g>
<g><path style="opacity:0.976" fill="#9f6aae" d="M 522.5,227.5 C 521.307,227.03 520.64,226.03 520.5,224.5C 520.904,220.771 522.571,217.771 525.5,215.5C 527.453,212.022 530.453,210.355 534.5,210.5C 532.726,217.707 528.726,223.373 522.5,227.5 Z"/></g>
<g><path style="opacity:1" fill="#505d65" d="M 181.5,215.5 C 179.898,217.074 177.898,217.741 175.5,217.5C 176.438,219.91 176.438,222.244 175.5,224.5C 172.609,225.403 169.609,225.736 166.5,225.5C 154.167,224.833 141.833,224.167 129.5,223.5C 134.5,223.5 139.5,223.5 144.5,223.5C 144.5,222.167 144.5,220.833 144.5,219.5C 122.5,219.5 100.5,219.5 78.5,219.5C 78.6107,218.883 78.944,218.383 79.5,218C 78.5842,217.722 77.9175,217.222 77.5,216.5C 107.507,216.618 137.507,216.284 167.5,215.5C 168.561,208.805 168.728,202.138 168,195.5C 169.787,201.773 169.954,208.106 168.5,214.5C 171.034,215.777 173.534,215.777 176,214.5C 177.186,208.915 177.852,203.249 178,197.5C 180.013,203.22 179.847,208.887 177.5,214.5C 178.689,215.429 180.022,215.762 181.5,215.5 Z"/></g>
<g><path style="opacity:1" fill="#bec8cc" d="M 78.5,219.5 C 100.5,219.5 122.5,219.5 144.5,219.5C 144.5,220.833 144.5,222.167 144.5,223.5C 139.5,223.5 134.5,223.5 129.5,223.5C 112.5,223.5 95.5,223.5 78.5,223.5C 78.5,222.167 78.5,220.833 78.5,219.5 Z"/></g>
<g><path style="opacity:1" fill="#eaf2f5" d="M 79.5,220.5 C 100.844,220.167 122.177,220.5 143.5,221.5C 132.833,221.833 122.167,222.167 111.5,222.5C 100.478,222.499 89.8118,221.832 79.5,220.5 Z"/></g>
<g><path style="opacity:1" fill="#4d5a67" d="M 77.5,216.5 C 77.9175,217.222 78.5842,217.722 79.5,218C 78.944,218.383 78.6107,218.883 78.5,219.5C 78.5,220.833 78.5,222.167 78.5,223.5C 95.5,223.5 112.5,223.5 129.5,223.5C 141.833,224.167 154.167,224.833 166.5,225.5C 136.662,225.169 106.995,225.502 77.5,226.5C 76.8333,226.833 76.1667,227.167 75.5,227.5C 72.1667,227.5 68.8333,227.5 65.5,227.5C 61.8183,227.665 58.1516,227.499 54.5,227C 52.4963,224.159 51.9963,220.993 53,217.5C 58.1647,216.81 63.3314,216.143 68.5,215.5C 70.5,215.833 72.5,216.167 74.5,216.5C 73.1247,210.438 73.2913,204.438 75,198.5C 75.3333,203.5 75.6667,208.5 76,213.5C 76.2321,214.737 76.7321,215.737 77.5,216.5 Z"/></g>
<g><path style="opacity:1" fill="#ab6eae" d="M 414.5,231.5 C 413.833,231.5 413.167,231.5 412.5,231.5C 412.5,230.833 412.167,230.5 411.5,230.5C 410.052,228.445 408.719,226.278 407.5,224C 403.947,223.564 401.947,221.564 401.5,218C 395.293,215.213 389.293,212.379 383.5,209.5C 380.333,209.167 377.167,208.833 374,208.5C 368.289,208.676 362.789,209.676 357.5,211.5C 357.878,217.31 357.211,222.977 355.5,228.5C 343.031,240.925 328.865,243.258 313,235.5C 313.782,229.468 311.282,225.801 305.5,224.5C 301.959,226.53 298.292,228.363 294.5,230C 288.925,229.997 283.592,230.831 278.5,232.5C 279.579,230.457 281.246,229.124 283.5,228.5C 287.182,228.665 290.848,228.499 294.5,228C 298.01,225.818 301.51,223.651 305,221.5C 307.319,222.871 309.819,223.538 312.5,223.5C 314.314,227.279 315.314,231.279 315.5,235.5C 321.957,237.431 328.624,237.931 335.5,237C 343.647,234.937 349.981,230.437 354.5,223.5C 355.494,218.544 355.827,213.544 355.5,208.5C 367.95,206.702 380.283,207.202 392.5,210C 402.348,214.682 409.682,221.849 414.5,231.5 Z"/></g>
<g><path style="opacity:1" fill="#5d5276" d="M 175.5,224.5 C 175.5,224.833 175.5,225.167 175.5,225.5C 143.004,226.498 110.338,226.832 77.5,226.5C 106.995,225.502 136.662,225.169 166.5,225.5C 169.609,225.736 172.609,225.403 175.5,224.5 Z"/></g>
<g><path style="opacity:0.89" fill="#342b43" d="M 310.5,220.5 C 310.5,221.167 310.833,221.5 311.5,221.5C 312.338,221.842 312.672,222.508 312.5,223.5C 309.819,223.538 307.319,222.871 305,221.5C 301.51,223.651 298.01,225.818 294.5,228C 290.848,228.499 287.182,228.665 283.5,228.5C 282.473,226.806 281.139,225.473 279.5,224.5C 280.15,224.196 280.817,223.863 281.5,223.5C 287.042,227.17 292.708,227.336 298.5,224C 301.779,220.899 305.779,219.732 310.5,220.5 Z"/></g>
<g><path style="opacity:1" fill="#9170a4" d="M 175.5,225.5 C 178.059,225.198 180.393,225.532 182.5,226.5C 147.224,226.825 112.224,227.825 77.5,229.5C 76.5,229.167 75.8333,228.5 75.5,227.5C 76.1667,227.167 76.8333,226.833 77.5,226.5C 110.338,226.832 143.004,226.498 175.5,225.5 Z"/></g>
<g><path style="opacity:1" fill="#af76bc" d="M 182.5,226.5 C 184.776,226.756 185.943,228.09 186,230.5C 186.943,236.436 186.443,242.103 184.5,247.5C 184.5,246.5 184.5,245.5 184.5,244.5C 184.5,239.167 184.5,233.833 184.5,228.5C 149.167,228.5 113.833,228.5 78.5,228.5C 78.6661,234.176 78.4994,239.843 78,245.5C 77.4867,246.527 76.9867,247.527 76.5,248.5C 75.8333,248.5 75.1667,248.5 74.5,248.5C 70.8333,247.833 67.1667,247.167 63.5,246.5C 64.5,246.5 65.5,246.5 66.5,246.5C 69.5184,246.665 72.5184,246.498 75.5,246C 76,245.5 76.5,245 77,244.5C 77.4993,239.511 77.6659,234.511 77.5,229.5C 112.224,227.825 147.224,226.825 182.5,226.5 Z"/></g>
<g><path style="opacity:1" fill="#d58be1" d="M 411.5,230.5 C 412.167,230.5 412.5,230.833 412.5,231.5C 410.123,231.784 407.956,231.784 406,231.5C 404.414,234.341 402.58,237.007 400.5,239.5C 398.474,237.295 396.808,234.795 395.5,232C 392.377,231.794 389.377,231.127 386.5,230C 387.047,229.075 387.713,228.242 388.5,227.5C 390.875,229.265 393.542,230.432 396.5,231C 397.794,233.087 398.961,235.254 400,237.5C 401.87,235.595 403.37,233.428 404.5,231C 406.81,230.503 409.143,230.337 411.5,230.5 Z"/></g>
<g><path style="opacity:0.612" fill="#87698b" d="M 561.5,236.5 C 562.068,233.412 562.068,230.412 561.5,227.5C 559.974,230.567 557.974,233.234 555.5,235.5C 556.38,232.738 557.546,230.071 559,227.5C 560.11,225.963 561.61,225.297 563.5,225.5C 563.884,229.489 563.217,233.155 561.5,236.5 Z"/></g>
<g><path style="opacity:1" fill="#b668c4" d="M 184.5,244.5 C 182.043,245.023 179.709,245.856 177.5,247C 160.837,247.5 144.17,247.667 127.5,247.5C 127.307,244.525 128.307,242.025 130.5,240C 128.963,238.89 128.297,237.39 128.5,235.5C 130.308,235.509 131.975,235.009 133.5,234C 124.184,230.951 114.85,230.784 105.5,233.5C 105.167,233.5 104.833,233.5 104.5,233.5C 103.5,233.5 102.5,233.5 101.5,233.5C 100.833,233.833 100.167,234.167 99.5,234.5C 96.6735,233.026 94.1735,233.36 92,235.5C 88.7606,239.049 89.2606,242.049 93.5,244.5C 95.9556,241.92 98.4556,241.92 101,244.5C 107.47,242.368 113.97,242.201 120.5,244C 119.833,244.667 119.167,245.333 118.5,246C 113.241,245.475 107.907,245.808 102.5,247C 108.825,247.5 115.158,247.666 121.5,247.5C 121.5,247.833 121.5,248.167 121.5,248.5C 106.5,248.5 91.5,248.5 76.5,248.5C 76.9867,247.527 77.4867,246.527 78,245.5C 78.4994,239.843 78.6661,234.176 78.5,228.5C 113.833,228.5 149.167,228.5 184.5,228.5C 184.5,233.833 184.5,239.167 184.5,244.5 Z"/></g>
<g><path style="opacity:1" fill="#b671c1" d="M 127.5,247.5 C 125.5,247.5 123.5,247.5 121.5,247.5C 115.158,247.666 108.825,247.5 102.5,247C 107.907,245.808 113.241,245.475 118.5,246C 119.167,245.333 119.833,244.667 120.5,244C 113.97,242.201 107.47,242.368 101,244.5C 98.4556,241.92 95.9556,241.92 93.5,244.5C 89.2606,242.049 88.7606,239.049 92,235.5C 94.1735,233.36 96.6735,233.026 99.5,234.5C 99.5858,235.496 99.2524,236.329 98.5,237C 97.1667,237.333 95.8333,237.667 94.5,238C 95.5018,239.672 96.6684,240.838 98,241.5C 99.3333,238.833 100.667,238.833 102,241.5C 102.602,238.779 102.435,236.113 101.5,233.5C 102.5,233.5 103.5,233.5 104.5,233.5C 104.167,236.167 103.833,238.833 103.5,241.5C 106.482,241.896 109.149,241.229 111.5,239.5C 112.328,240.415 113.328,241.081 114.5,241.5C 116.105,240.57 117.605,240.57 119,241.5C 117.874,239.05 118.541,237.05 121,235.5C 120.621,239.122 122.121,241.289 125.5,242C 124.159,243.295 122.826,243.795 121.5,243.5C 123.611,244.848 125.445,244.515 127,242.5C 127.667,239.5 127.667,236.5 127,233.5C 125.233,242.619 123.899,242.619 123,233.5C 122.259,234.641 121.425,234.641 120.5,233.5C 119.167,236.167 117.833,236.167 116.5,233.5C 116.797,235.885 116.297,238.218 115,240.5C 113.957,238.299 113.123,235.966 112.5,233.5C 110.879,235.153 109.712,237.153 109,239.5C 107.989,240.337 106.822,240.67 105.5,240.5C 105.5,238.167 105.5,235.833 105.5,233.5C 114.85,230.784 124.184,230.951 133.5,234C 131.975,235.009 130.308,235.509 128.5,235.5C 128.297,237.39 128.963,238.89 130.5,240C 128.307,242.025 127.307,244.525 127.5,247.5 Z"/></g>
<g><path style="opacity:0.867" fill="#704678" d="M 561.5,236.5 C 559.971,240.368 557.637,243.701 554.5,246.5C 553.503,246.53 552.836,246.03 552.5,245C 553.322,242.566 553.656,240.066 553.5,237.5C 554.167,236.833 554.833,236.167 555.5,235.5C 557.974,233.234 559.974,230.567 561.5,227.5C 562.068,230.412 562.068,233.412 561.5,236.5 Z"/></g>
<g><path style="opacity:0.861" fill="#f3f0f3" d="M 66.5,229.5 C 69.3709,230.679 72.2043,230.679 75,229.5C 75.8015,234.419 75.6349,239.252 74.5,244C 71.7513,243.761 69.0847,243.928 66.5,244.5C 66.5,239.5 66.5,234.5 66.5,229.5 Z"/></g>
<g><path style="opacity:1" fill="#e3b2e9" d="M 101.5,233.5 C 102.435,236.113 102.602,238.779 102,241.5C 100.667,238.833 99.3333,238.833 98,241.5C 96.6684,240.838 95.5018,239.672 94.5,238C 95.8333,237.667 97.1667,237.333 98.5,237C 99.2524,236.329 99.5858,235.496 99.5,234.5C 100.167,234.167 100.833,233.833 101.5,233.5 Z"/></g>
<g><path style="opacity:1" fill="#a667b0" d="M 514.5,239.5 C 513.984,241.2 512.984,242.533 511.5,243.5C 510.717,241.712 509.384,240.712 507.5,240.5C 506.537,236.204 506.371,231.871 507,227.5C 507.953,225.408 509.286,225.075 511,226.5C 512.108,230.884 513.275,235.218 514.5,239.5 Z"/></g>
<g><path style="opacity:1" fill="#e8adef" d="M 104.5,233.5 C 104.833,233.5 105.167,233.5 105.5,233.5C 105.5,235.833 105.5,238.167 105.5,240.5C 106.822,240.67 107.989,240.337 109,239.5C 109.712,237.153 110.879,235.153 112.5,233.5C 113.123,235.966 113.957,238.299 115,240.5C 116.297,238.218 116.797,235.885 116.5,233.5C 117.833,236.167 119.167,236.167 120.5,233.5C 121.425,234.641 122.259,234.641 123,233.5C 123.899,242.619 125.233,242.619 127,233.5C 127.667,236.5 127.667,239.5 127,242.5C 125.445,244.515 123.611,244.848 121.5,243.5C 122.826,243.795 124.159,243.295 125.5,242C 122.121,241.289 120.621,239.122 121,235.5C 118.541,237.05 117.874,239.05 119,241.5C 117.605,240.57 116.105,240.57 114.5,241.5C 113.328,241.081 112.328,240.415 111.5,239.5C 109.149,241.229 106.482,241.896 103.5,241.5C 103.833,238.833 104.167,236.167 104.5,233.5 Z"/></g>
<g><path style="opacity:1" fill="#9553a1" d="M 364.5,216.5 C 367.012,218.478 368.512,221.145 369,224.5C 370.938,223.14 372.604,223.473 374,225.5C 375.771,234.494 373.604,242.327 367.5,249C 367.833,249.333 368.167,249.667 368.5,250C 362.264,253.947 355.931,257.614 349.5,261C 343.098,261.818 336.765,261.484 330.5,260C 328.893,258.951 328.227,257.451 328.5,255.5C 340.882,255.541 351.715,251.541 361,243.5C 368.221,235.293 369.388,226.293 364.5,216.5 Z"/></g>
<g><path style="opacity:1" fill="#f4e1f7" d="M 65.5,227.5 C 68.8333,227.5 72.1667,227.5 75.5,227.5C 75.8333,228.5 76.5,229.167 77.5,229.5C 77.6659,234.511 77.4993,239.511 77,244.5C 76.5,245 76,245.5 75.5,246C 72.5184,246.498 69.5184,246.665 66.5,246.5C 66.5,245.833 66.5,245.167 66.5,244.5C 69.0847,243.928 71.7513,243.761 74.5,244C 75.6349,239.252 75.8015,234.419 75,229.5C 72.2043,230.679 69.3709,230.679 66.5,229.5C 66.1667,228.833 65.8333,228.167 65.5,227.5 Z"/></g>
<g><path style="opacity:1" fill="#985fa1" d="M 184.5,244.5 C 184.5,245.5 184.5,246.5 184.5,247.5C 182.626,248.285 180.626,248.952 178.5,249.5C 168.167,249.5 157.833,249.5 147.5,249.5C 144.696,248.362 141.696,248.195 138.5,249C 134.82,253.902 133.653,259.402 135,265.5C 136,266.833 137,266.833 138,265.5C 138.93,267.398 139.43,269.398 139.5,271.5C 138.5,271.5 137.5,271.5 136.5,271.5C 131.292,264.001 131.292,256.501 136.5,249C 131.511,248.501 126.511,248.334 121.5,248.5C 121.5,248.167 121.5,247.833 121.5,247.5C 123.5,247.5 125.5,247.5 127.5,247.5C 144.17,247.667 160.837,247.5 177.5,247C 179.709,245.856 182.043,245.023 184.5,244.5 Z"/></g>
<g><path style="opacity:1" fill="#834a8e" d="M 75.5,251.5 C 74.8333,251.5 74.5,251.167 74.5,250.5C 73.4937,249.604 73.4937,248.938 74.5,248.5C 75.1667,248.5 75.8333,248.5 76.5,248.5C 91.5,248.5 106.5,248.5 121.5,248.5C 126.511,248.334 131.511,248.501 136.5,249C 131.292,256.501 131.292,264.001 136.5,271.5C 134.567,270.358 133.067,268.692 132,266.5C 130.874,262.251 130.208,257.918 130,253.5C 127.908,259.967 129.074,265.8 133.5,271C 114.17,271.5 94.8362,271.667 75.5,271.5C 70.1667,271.5 64.8333,271.5 59.5,271.5C 60.5401,269.281 60.0401,267.281 58,265.5C 57.3333,261.5 57.3333,257.5 58,253.5C 60.0462,249.324 62.2128,248.99 64.5,252.5C 65.4287,251.311 65.762,249.978 65.5,248.5C 66.8734,248.343 68.2068,248.51 69.5,249C 67.7403,254.692 67.2403,260.525 68,266.5C 70.4016,271.315 73.2349,271.648 76.5,267.5C 77.1846,262.381 78.1846,257.381 79.5,252.5C 78.0413,252.567 76.7079,252.234 75.5,251.5 Z"/></g>
<g><path style="opacity:0.843" fill="#a46caa" d="M 421.5,242.5 C 425.085,248.668 428.418,255.001 431.5,261.5C 428.777,260.778 427.111,259.111 426.5,256.5C 424.259,252.022 422.592,247.355 421.5,242.5 Z"/></g>
<g><path style="opacity:0.359" fill="#b5a2ba" d="M 553.5,237.5 C 553.656,240.066 553.322,242.566 552.5,245C 552.836,246.03 553.503,246.53 554.5,246.5C 552.967,249.118 551.634,251.784 550.5,254.5C 550.768,252.901 550.434,251.568 549.5,250.5C 549.97,244.804 550.47,239.138 551,233.5C 551.333,232.833 551.667,232.167 552,231.5C 553.128,233.345 553.628,235.345 553.5,237.5 Z"/></g>
<g><path style="opacity:0.999" fill="#eae9e9" d="M 177.5,254.5 C 177.5,257.5 177.5,260.5 177.5,263.5C 176.462,265.572 174.962,267.239 173,268.5C 166.925,267.04 160.925,266.706 155,267.5C 152.833,267.167 150.667,266.833 148.5,266.5C 149.833,265.5 151.167,264.5 152.5,263.5C 149.957,262.197 147.29,261.197 144.5,260.5C 144.167,259.833 143.833,259.167 143.5,258.5C 145.453,256.414 147.453,254.247 149.5,252C 158.16,251.5 166.827,251.334 175.5,251.5C 175.285,253.179 175.952,254.179 177.5,254.5 Z"/></g>
<g><path style="opacity:0.188" fill="#aa92ae" d="M 515.5,246.5 C 515.185,250.371 515.518,254.038 516.5,257.5C 516.68,261.215 516.346,264.882 515.5,268.5C 515.667,269.167 515.833,269.833 516,270.5C 516.236,268.881 517.069,267.881 518.5,267.5C 518.389,268.117 518.056,268.617 517.5,269C 518.863,270.945 519.697,273.112 520,275.5C 521.518,276.163 522.685,277.163 523.5,278.5C 521.878,279.122 520.545,280.122 519.5,281.5C 519.167,281.5 518.833,281.5 518.5,281.5C 514.442,271.593 512.442,261.26 512.5,250.5C 513.319,253.305 513.819,256.305 514,259.5C 514.175,254.981 514.675,250.647 515.5,246.5 Z"/></g>
<g><path style="opacity:1" fill="#764a7d" d="M 545.5,249.5 C 545.656,253.582 545.156,257.582 544,261.5C 543.583,262.756 542.75,263.423 541.5,263.5C 539.841,256.594 539.341,249.594 540,242.5C 540.605,240.519 541.605,240.185 543,241.5C 544.707,243.909 545.54,246.575 545.5,249.5 Z"/></g>
<g><path style="opacity:0.565" fill="#a169ab" d="M 518.5,267.5 C 517.069,267.881 516.236,268.881 516,270.5C 515.833,269.833 515.667,269.167 515.5,268.5C 516.346,264.882 516.68,261.215 516.5,257.5C 517.182,253.802 518.682,250.469 521,247.5C 522.11,245.963 523.61,245.297 525.5,245.5C 525.663,247.857 525.497,250.19 525,252.5C 522.821,257.521 520.654,262.521 518.5,267.5 Z"/></g>
<g><path style="opacity:0.439" fill="#937d96" d="M 545.5,249.5 C 546.314,251.631 546.814,253.964 547,256.5C 547.845,254.389 548.678,252.389 549.5,250.5C 550.434,251.568 550.768,252.901 550.5,254.5C 547.735,261.47 544.401,268.136 540.5,274.5C 539.833,274.5 539.5,274.833 539.5,275.5C 538.833,275.5 538.5,275.833 538.5,276.5C 537.833,276.5 537.5,276.833 537.5,277.5C 536.167,280.833 533.833,283.167 530.5,284.5C 532.728,280.388 535.228,276.388 538,272.5C 539.741,269.691 540.908,266.691 541.5,263.5C 542.75,263.423 543.583,262.756 544,261.5C 545.156,257.582 545.656,253.582 545.5,249.5 Z"/></g>
<g><path style="opacity:1" fill="#e2d3e5" d="M 74.5,250.5 C 74.5,251.167 74.8333,251.5 75.5,251.5C 75.6659,256.511 75.4993,261.511 75,266.5C 73.5064,267.747 72.0064,267.747 70.5,266.5C 69.3897,261.889 69.2231,257.222 70,252.5C 71.1096,250.963 72.6096,250.297 74.5,250.5 Z"/></g>
<g><path style="opacity:1" fill="#e9dbea" d="M 147.5,249.5 C 157.833,249.5 168.167,249.5 178.5,249.5C 177.699,251.042 177.366,252.708 177.5,254.5C 175.952,254.179 175.285,253.179 175.5,251.5C 166.827,251.334 158.16,251.5 149.5,252C 147.453,254.247 145.453,256.414 143.5,258.5C 143.833,259.167 144.167,259.833 144.5,260.5C 147.29,261.197 149.957,262.197 152.5,263.5C 151.167,264.5 149.833,265.5 148.5,266.5C 150.667,266.833 152.833,267.167 155,267.5C 160.925,266.706 166.925,267.04 173,268.5C 174.962,267.239 176.462,265.572 177.5,263.5C 177.448,265.903 177.781,268.236 178.5,270.5C 172.167,270.5 165.833,270.5 159.5,270.5C 155.154,270.666 150.821,270.499 146.5,270C 136.895,262.516 137.229,255.683 147.5,249.5 Z"/></g>
<g><path style="opacity:1" fill="#83568b" d="M 63.5,246.5 C 67.1667,247.167 70.8333,247.833 74.5,248.5C 73.4937,248.938 73.4937,249.604 74.5,250.5C 72.6096,250.297 71.1096,250.963 70,252.5C 69.2231,257.222 69.3897,261.889 70.5,266.5C 72.0064,267.747 73.5064,267.747 75,266.5C 75.4993,261.511 75.6659,256.511 75.5,251.5C 76.7079,252.234 78.0413,252.567 79.5,252.5C 78.1846,257.381 77.1846,262.381 76.5,267.5C 73.2349,271.648 70.4016,271.315 68,266.5C 67.2403,260.525 67.7403,254.692 69.5,249C 68.2068,248.51 66.8734,248.343 65.5,248.5C 65.762,249.978 65.4287,251.311 64.5,252.5C 62.2128,248.99 60.0462,249.324 58,253.5C 57.3333,257.5 57.3333,261.5 58,265.5C 60.0401,267.281 60.5401,269.281 59.5,271.5C 58.5,271.5 57.5,271.5 56.5,271.5C 49.0711,269.232 45.9045,264.232 47,256.5C 50.062,249.216 55.562,245.883 63.5,246.5 Z"/></g>
<g><path style="opacity:1" fill="#7e4c87" d="M 147.5,249.5 C 137.229,255.683 136.895,262.516 146.5,270C 150.821,270.499 155.154,270.666 159.5,270.5C 159.5,270.833 159.5,271.167 159.5,271.5C 158.5,271.5 157.5,271.5 156.5,271.5C 150.833,271.5 145.167,271.5 139.5,271.5C 139.43,269.398 138.93,267.398 138,265.5C 137,266.833 136,266.833 135,265.5C 133.653,259.402 134.82,253.902 138.5,249C 141.696,248.195 144.696,248.362 147.5,249.5 Z"/></g>
<g><path style="opacity:1" fill="#da8fe7" d="M 292.5,248.5 C 293.124,248.917 293.457,249.584 293.5,250.5C 292.976,252.383 292.309,254.216 291.5,256C 293.524,258.881 294.857,262.047 295.5,265.5C 292.482,265.335 289.482,265.502 286.5,266C 284.65,268.018 282.65,269.851 280.5,271.5C 279.034,268.979 278.534,266.312 279,263.5C 279.973,265.392 280.64,267.392 281,269.5C 282.878,267.957 284.378,266.124 285.5,264C 288.226,263.818 290.893,263.318 293.5,262.5C 291.774,260.772 290.441,258.772 289.5,256.5C 290.9,253.965 291.9,251.298 292.5,248.5 Z"/></g>
<g><path style="opacity:0.673" fill="#705a6f" d="M 159.5,271.5 C 159.5,271.167 159.5,270.833 159.5,270.5C 165.833,270.5 172.167,270.5 178.5,270.5C 178.389,271.117 178.056,271.617 177.5,272C 175.527,272.495 173.527,272.662 171.5,272.5C 167.702,271.517 163.702,271.183 159.5,271.5 Z"/></g>
<g><path style="opacity:1" fill="#aa7db1" d="M 156.5,271.5 C 157.5,271.5 158.5,271.5 159.5,271.5C 163.702,271.183 167.702,271.517 171.5,272.5C 170.209,272.263 169.209,272.596 168.5,273.5C 164.5,273.5 160.5,273.5 156.5,273.5C 156.5,272.833 156.5,272.167 156.5,271.5 Z"/></g>
<g><path style="opacity:0.988" fill="#7b5781" d="M 543.5,280.5 C 543.721,279.265 544.388,278.265 545.5,277.5C 545.192,276.692 544.692,276.025 544,275.5C 542.556,277.155 540.722,277.822 538.5,277.5C 538.5,277.167 538.5,276.833 538.5,276.5C 539.167,276.5 539.5,276.167 539.5,275.5C 540.167,275.5 540.5,275.167 540.5,274.5C 543.114,273.193 545.78,271.86 548.5,270.5C 550.283,271.348 550.783,272.681 550,274.5C 548.465,277.294 546.298,279.294 543.5,280.5 Z"/></g>
<g><path style="opacity:1" fill="#b868c6" d="M 426.5,256.5 C 427.111,259.111 428.777,260.778 431.5,261.5C 432.674,262.514 433.34,263.847 433.5,265.5C 434.411,269.998 435.911,274.332 438,278.5C 439.067,280.692 440.567,282.358 442.5,283.5C 447.202,290.237 450.868,297.57 453.5,305.5C 453.42,318.149 453.754,330.816 454.5,343.5C 430.533,344.471 406.533,344.804 382.5,344.5C 379.602,336.693 377.269,328.693 375.5,320.5C 378.843,316.597 383.176,314.597 388.5,314.5C 393.299,314.448 397.633,315.781 401.5,318.5C 406.154,315.808 410.654,316.141 415,319.5C 415.5,319 416,318.5 416.5,318C 412.065,315.231 407.398,314.064 402.5,314.5C 401.606,310.136 400.606,305.803 399.5,301.5C 399.704,293.566 398.871,285.899 397,278.5C 397.333,278.167 397.667,277.833 398,277.5C 399.743,279.227 401.576,279.894 403.5,279.5C 404.192,278.975 404.692,278.308 405,277.5C 406.626,281.405 409.459,284.072 413.5,285.5C 415.043,282.914 416.709,280.414 418.5,278C 421.633,277.607 424.633,276.774 427.5,275.5C 425.082,273.091 423.082,270.424 421.5,267.5C 422.249,265.759 422.583,264.092 422.5,262.5C 423.689,261.571 425.022,261.238 426.5,261.5C 426.5,259.833 426.5,258.167 426.5,256.5 Z"/></g>
<g><path style="opacity:1" fill="#ebe9eb" d="M 167.5,275.5 C 167.64,281.536 167.307,287.536 166.5,293.5C 163.253,292.748 159.919,292.248 156.5,292C 151.513,287.566 151.18,282.733 155.5,277.5C 159.288,275.744 163.288,275.078 167.5,275.5 Z"/></g>
<g><path style="opacity:0.733" fill="#6b4275" d="M 543.5,280.5 C 541.421,282.873 538.754,284.206 535.5,284.5C 533.602,285.096 531.935,285.096 530.5,284.5C 533.833,283.167 536.167,280.833 537.5,277.5C 537.833,277.5 538.167,277.5 538.5,277.5C 540.722,277.822 542.556,277.155 544,275.5C 544.692,276.025 545.192,276.692 545.5,277.5C 544.388,278.265 543.721,279.265 543.5,280.5 Z"/></g>
<g><path style="opacity:0.839" fill="#a36baa" d="M 433.5,265.5 C 437.008,271.182 440.008,277.182 442.5,283.5C 440.567,282.358 439.067,280.692 438,278.5C 435.911,274.332 434.411,269.998 433.5,265.5 Z"/></g>
<g><path style="opacity:1" fill="#a86fb3" d="M 278.5,232.5 C 276.992,235.361 274.826,237.694 272,239.5C 271.814,241.9 271.314,244.234 270.5,246.5C 268.902,245.515 267.235,245.349 265.5,246C 250.845,261.641 236.678,277.474 223,293.5C 222.619,296.481 223.952,298.481 227,299.5C 227.495,301.473 227.662,303.473 227.5,305.5C 226.5,304.833 225.5,304.167 224.5,303.5C 223.091,299.684 221.424,296.017 219.5,292.5C 232.167,279.999 244.334,266.999 256,253.5C 263.089,245.906 270.589,238.906 278.5,232.5 Z"/></g>
<g><path style="opacity:1" fill="#d58be2" d="M 326.5,272.5 C 329.351,277.253 333.685,279.587 339.5,279.5C 337.115,281.884 335.115,284.55 333.5,287.5C 334.482,290.096 335.149,292.762 335.5,295.5C 332.422,294.798 329.422,293.798 326.5,292.5C 318.714,295.097 318.547,294.43 326,290.5C 328.227,291.363 330.393,292.363 332.5,293.5C 332.71,290.614 332.877,287.614 333,284.5C 334.5,283 336,281.5 337.5,280C 334.377,279.794 331.377,279.127 328.5,278C 327.139,276.416 326.472,274.582 326.5,272.5 Z"/></g>
<g><path style="opacity:0.686" fill="#a873b1" d="M 518.5,281.5 C 518.5,282.167 518.833,282.5 519.5,282.5C 520.412,283.738 520.579,285.072 520,286.5C 518.333,284.833 516.667,283.167 515,281.5C 514.833,281.833 514.667,282.167 514.5,282.5C 516.422,284.687 518.088,287.02 519.5,289.5C 513.3,286.296 509.3,281.296 507.5,274.5C 507.527,272.296 508.527,271.462 510.5,272C 513.304,275.145 515.97,278.312 518.5,281.5 Z"/></g>
<g><path style="opacity:1" fill="#ba6ac7" d="M 60.5,274.5 C 90.1685,274.333 119.835,274.5 149.5,275C 148.24,277.213 147.574,279.713 147.5,282.5C 147.551,285.223 147.884,287.89 148.5,290.5C 143.869,291.662 139.202,291.828 134.5,291C 135.833,286.667 137.167,282.333 138.5,278C 138.167,277.667 137.833,277.333 137.5,277C 130.5,276.333 123.5,276.333 116.5,277C 117.167,277.333 117.833,277.667 118.5,278C 113.798,278.172 109.132,278.672 104.5,279.5C 102.661,281.527 102.161,283.86 103,286.5C 104.388,287.554 105.888,287.72 107.5,287C 109.608,283.66 111.108,283.827 112,287.5C 113.352,285.406 113.852,283.073 113.5,280.5C 114.873,280.343 116.207,280.51 117.5,281C 115.681,283.056 115.015,285.223 115.5,287.5C 117.12,284.942 118.62,284.942 120,287.5C 120.541,277.033 121.541,277.033 123,287.5C 123.219,286.062 123.719,284.729 124.5,283.5C 125.5,284.833 126.5,286.167 127.5,287.5C 128.281,286.271 128.781,284.938 129,283.5C 129.398,286.232 130.898,288.065 133.5,289C 132.167,289.333 130.833,289.667 129.5,290C 129.833,290.333 130.167,290.667 130.5,291C 119.485,291.832 108.485,291.666 97.5,290.5C 96.9747,289.808 96.3081,289.308 95.5,289C 99.8826,289.592 101.883,287.759 101.5,283.5C 102.157,279.49 100.49,277.824 96.5,278.5C 96.6633,280.857 96.4966,283.19 96,285.5C 94.33,287.698 92.33,288.032 90,286.5C 90.0514,283.059 88.8847,280.226 86.5,278C 83.5,278.333 80.5,278.667 77.5,279C 78.3366,277.989 78.67,276.822 78.5,275.5C 74.8183,275.335 71.1516,275.501 67.5,276C 68.1667,276.333 68.8333,276.667 69.5,277C 68.5842,277.278 67.9175,277.778 67.5,278.5C 66.1914,279.624 65.5247,281.124 65.5,283C 66.8352,285.676 68.1685,288.343 69.5,291C 68.944,291.383 68.6107,291.883 68.5,292.5C 65.5,292.5 62.5,292.5 59.5,292.5C 58.0134,286.395 58.3467,280.395 60.5,274.5 Z"/></g>
<g><path style="opacity:0.22" fill="#af88b1" d="M 530.5,284.5 C 531.935,285.096 533.602,285.096 535.5,284.5C 535.768,286.099 535.434,287.432 534.5,288.5C 534.265,287.903 533.765,287.57 533,287.5C 531.233,288.34 529.899,289.673 529,291.5C 528.617,290.944 528.117,290.611 527.5,290.5C 528.13,288.25 529.13,286.25 530.5,284.5 Z"/></g>
<g><path style="opacity:1" fill="#af65bd" d="M 136.5,271.5 C 137.5,271.5 138.5,271.5 139.5,271.5C 145.167,271.5 150.833,271.5 156.5,271.5C 156.5,272.167 156.5,272.833 156.5,273.5C 150.015,277.139 148.015,282.473 150.5,289.5C 150.5,290.5 150.5,291.5 150.5,292.5C 123.167,292.5 95.8333,292.5 68.5,292.5C 68.6107,291.883 68.944,291.383 69.5,291C 68.1685,288.343 66.8352,285.676 65.5,283C 65.5247,281.124 66.1914,279.624 67.5,278.5C 67.9175,277.778 68.5842,277.278 69.5,277C 68.8333,276.667 68.1667,276.333 67.5,276C 71.1516,275.501 74.8183,275.335 78.5,275.5C 78.67,276.822 78.3366,277.989 77.5,279C 80.5,278.667 83.5,278.333 86.5,278C 88.8847,280.226 90.0514,283.059 90,286.5C 92.33,288.032 94.33,287.698 96,285.5C 96.4966,283.19 96.6633,280.857 96.5,278.5C 100.49,277.824 102.157,279.49 101.5,283.5C 101.883,287.759 99.8826,289.592 95.5,289C 96.3081,289.308 96.9747,289.808 97.5,290.5C 108.485,291.666 119.485,291.832 130.5,291C 130.167,290.667 129.833,290.333 129.5,290C 130.833,289.667 132.167,289.333 133.5,289C 130.898,288.065 129.398,286.232 129,283.5C 128.781,284.938 128.281,286.271 127.5,287.5C 126.5,286.167 125.5,284.833 124.5,283.5C 123.719,284.729 123.219,286.062 123,287.5C 121.541,277.033 120.541,277.033 120,287.5C 118.62,284.942 117.12,284.942 115.5,287.5C 115.015,285.223 115.681,283.056 117.5,281C 116.207,280.51 114.873,280.343 113.5,280.5C 113.852,283.073 113.352,285.406 112,287.5C 111.108,283.827 109.608,283.66 107.5,287C 105.888,287.72 104.388,287.554 103,286.5C 102.161,283.86 102.661,281.527 104.5,279.5C 109.132,278.672 113.798,278.172 118.5,278C 117.833,277.667 117.167,277.333 116.5,277C 123.5,276.333 130.5,276.333 137.5,277C 137.833,277.333 138.167,277.667 138.5,278C 137.167,282.333 135.833,286.667 134.5,291C 139.202,291.828 143.869,291.662 148.5,290.5C 147.884,287.89 147.551,285.223 147.5,282.5C 147.574,279.713 148.24,277.213 149.5,275C 119.835,274.5 90.1685,274.333 60.5,274.5C 64.5267,272.205 68.86,271.872 73.5,273.5C 74.7133,273.253 75.38,272.586 75.5,271.5C 94.8362,271.667 114.17,271.5 133.5,271C 129.074,265.8 127.908,259.967 130,253.5C 130.208,257.918 130.874,262.251 132,266.5C 133.067,268.692 134.567,270.358 136.5,271.5 Z"/></g>
<g><path style="opacity:1" fill="#8a4996" d="M 67.5,278.5 C 71.9388,278.716 74.9388,280.882 76.5,285C 75.3132,289.755 72.8132,290.589 69,287.5C 67.8512,284.607 67.3512,281.607 67.5,278.5 Z"/></g>
<g><path style="opacity:1" fill="#efd7f3" d="M 156.5,273.5 C 160.5,273.5 164.5,273.5 168.5,273.5C 168.167,274.167 167.833,274.833 167.5,275.5C 163.288,275.078 159.288,275.744 155.5,277.5C 151.18,282.733 151.513,287.566 156.5,292C 159.919,292.248 163.253,292.748 166.5,293.5C 166.5,293.833 166.5,294.167 166.5,294.5C 160.151,295.686 154.817,294.02 150.5,289.5C 148.015,282.473 150.015,277.139 156.5,273.5 Z"/></g>
<g><path style="opacity:1" fill="#93509d" d="M 279.5,299.5 C 278.833,299.5 278.167,299.5 277.5,299.5C 277.672,298.508 277.338,297.842 276.5,297.5C 276.103,296.475 275.437,296.308 274.5,297C 273.659,301.245 271.325,304.078 267.5,305.5C 267.598,307.553 266.931,309.22 265.5,310.5C 265.503,305.473 265.836,300.473 266.5,295.5C 266.5,294.833 266.833,294.5 267.5,294.5C 268.815,293.524 270.148,292.524 271.5,291.5C 268.429,290.929 267.096,289.096 267.5,286C 267.292,281.439 267.792,276.939 269,272.5C 272.491,281.486 275.991,290.486 279.5,299.5 Z"/></g>
<g><path style="opacity:0.906" fill="#774c7e" d="M 523.5,278.5 C 525.881,282.481 526.881,286.814 526.5,291.5C 525.42,294.743 525.253,298.076 526,301.5C 526.417,302.756 527.25,303.423 528.5,303.5C 528.068,304.71 527.401,305.71 526.5,306.5C 525.883,306.611 525.383,306.944 525,307.5C 524.722,306.584 524.222,305.918 523.5,305.5C 523.577,299.746 522.244,294.413 519.5,289.5C 518.088,287.02 516.422,284.687 514.5,282.5C 514.667,282.167 514.833,281.833 515,281.5C 516.667,283.167 518.333,284.833 520,286.5C 520.579,285.072 520.412,283.738 519.5,282.5C 519.5,282.167 519.5,281.833 519.5,281.5C 520.545,280.122 521.878,279.122 523.5,278.5 Z"/></g>
<g><path style="opacity:1" fill="#bb77c6" d="M 56.5,271.5 C 57.5,271.5 58.5,271.5 59.5,271.5C 64.8333,271.5 70.1667,271.5 75.5,271.5C 75.38,272.586 74.7133,273.253 73.5,273.5C 68.86,271.872 64.5267,272.205 60.5,274.5C 58.3467,280.395 58.0134,286.395 59.5,292.5C 62.5,292.5 65.5,292.5 68.5,292.5C 95.8333,292.5 123.167,292.5 150.5,292.5C 151.289,292.783 151.956,293.283 152.5,294C 120.835,294.5 89.1684,294.667 57.5,294.5C 56.519,286.754 56.1856,279.087 56.5,271.5 Z"/></g>
<g><path style="opacity:0.918" fill="#a26baf" d="M 534.5,288.5 C 533.296,293.895 531.296,298.895 528.5,303.5C 527.25,303.423 526.417,302.756 526,301.5C 525.253,298.076 525.42,294.743 526.5,291.5C 527.167,291.5 527.5,291.167 527.5,290.5C 528.117,290.611 528.617,290.944 529,291.5C 529.899,289.673 531.233,288.34 533,287.5C 533.765,287.57 534.265,287.903 534.5,288.5 Z"/></g>
<g><path style="opacity:1" fill="#a573b3" d="M 150.5,289.5 C 154.817,294.02 160.151,295.686 166.5,294.5C 130.337,295.498 94.0038,295.832 57.5,295.5C 57.5,295.167 57.5,294.833 57.5,294.5C 89.1684,294.667 120.835,294.5 152.5,294C 151.956,293.283 151.289,292.783 150.5,292.5C 150.5,291.5 150.5,290.5 150.5,289.5 Z"/></g>
<g><path style="opacity:0.639" fill="#5c4b67" d="M 166.5,293.5 C 168.857,293.337 171.19,293.503 173.5,294C 174.756,294.417 175.423,295.25 175.5,296.5C 173.059,295.244 170.726,295.244 168.5,296.5C 164.167,296.5 159.833,296.5 155.5,296.5C 123.167,296.5 90.8333,296.5 58.5,296.5C 57.8333,296.5 57.5,296.167 57.5,295.5C 94.0038,295.832 130.337,295.498 166.5,294.5C 166.5,294.167 166.5,293.833 166.5,293.5 Z"/></g>
<g><path style="opacity:1" fill="#d68ce3" d="M 267.5,294.5 C 266.833,294.5 266.5,294.833 266.5,295.5C 265.504,295.414 264.671,295.748 264,296.5C 263.355,299.559 262.522,302.559 261.5,305.5C 259.641,303.808 257.641,302.308 255.5,301C 251.998,300.718 248.665,300.551 245.5,300.5C 246.473,297.221 247.973,294.221 250,291.5C 250.041,294.025 249.207,296.358 247.5,298.5C 252.971,297.271 257.471,298.937 261,303.5C 261.333,301.167 261.667,298.833 262,296.5C 263.637,294.394 265.47,293.728 267.5,294.5 Z"/></g>
<g><path style="opacity:1" fill="#93529f" d="M 391.5,260.5 C 391.772,270.975 393.438,281.475 396.5,292C 394.976,293.194 393.81,294.694 393,296.5C 392.949,299.277 392.782,301.943 392.5,304.5C 391.833,304.167 391.167,303.833 390.5,303.5C 389.805,299.287 389.139,295.121 388.5,291C 389.167,290.667 389.833,290.333 390.5,290C 389.627,282.155 389.293,274.322 389.5,266.5C 390.372,264.55 391.039,262.55 391.5,260.5 Z"/></g>
<g><path style="opacity:1" fill="#55516b" d="M 215.5,291.5 C 217.128,290.147 218.462,290.481 219.5,292.5C 221.424,296.017 223.091,299.684 224.5,303.5C 223.5,303.5 222.5,303.5 221.5,303.5C 220.944,299.77 219.278,296.603 216.5,294C 217.883,292.539 217.549,291.706 215.5,291.5 Z"/></g>
<g><path style="opacity:1" fill="#56506b" d="M 213.5,298.5 C 213.5,298.167 213.5,297.833 213.5,297.5C 214.5,297.5 215.5,297.5 216.5,297.5C 217.228,301.406 219.062,304.74 222,307.5C 222.74,308.749 222.573,309.749 221.5,310.5C 221.167,310.5 220.833,310.5 220.5,310.5C 220.5,309.833 220.167,309.5 219.5,309.5C 219.509,307.692 219.009,306.025 218,304.5C 216.723,302.253 215.223,300.253 213.5,298.5 Z"/></g>
<g><path style="opacity:1" fill="#2d383e" d="M 215.5,291.5 C 217.549,291.706 217.883,292.539 216.5,294C 219.278,296.603 220.944,299.77 221.5,303.5C 222.5,303.5 223.5,303.5 224.5,303.5C 224.523,305.927 225.023,308.26 226,310.5C 228.06,313.286 229.56,316.286 230.5,319.5C 226.833,317.167 223.833,314.167 221.5,310.5C 222.573,309.749 222.74,308.749 222,307.5C 219.062,304.74 217.228,301.406 216.5,297.5C 215.5,297.5 214.5,297.5 213.5,297.5C 212.387,296.054 212.22,294.387 213,292.5C 213.671,291.748 214.504,291.414 215.5,291.5 Z"/></g>
<g><path style="opacity:1" fill="#2b3239" d="M 168.5,296.5 C 170.726,295.244 173.059,295.244 175.5,296.5C 179.571,303.57 179.238,310.57 174.5,317.5C 172.545,318.323 170.545,318.49 168.5,318C 170.428,316.319 170.761,314.486 169.5,312.5C 169.435,312.062 169.601,311.728 170,311.5C 170.556,313.595 171.056,313.762 171.5,312C 170.106,307.843 169.773,303.677 170.5,299.5C 170.547,297.962 169.88,296.962 168.5,296.5 Z"/></g>
<g><path style="opacity:1" fill="#283339" d="M 57.5,294.5 C 57.5,294.833 57.5,295.167 57.5,295.5C 57.5,296.167 57.8333,296.5 58.5,296.5C 87.9972,297.332 117.664,297.832 147.5,298C 149.556,298.311 151.556,298.811 153.5,299.5C 154.425,298.643 155.092,297.643 155.5,296.5C 159.833,296.5 164.167,296.5 168.5,296.5C 169.758,302.324 167.424,305.324 161.5,305.5C 160.289,306.72 160.289,307.887 161.5,309C 163.134,309.494 164.801,309.66 166.5,309.5C 166.66,311.199 166.494,312.866 166,314.5C 163.482,312.972 161.315,313.306 159.5,315.5C 161.22,316.934 163.22,317.767 165.5,318C 131.167,318.667 96.8333,318.667 62.5,318C 67.1423,316.17 67.309,314.67 63,313.5C 61.5962,313.509 60.4296,314.009 59.5,315C 60.8228,315.816 61.4894,316.983 61.5,318.5C 60.1779,318.67 59.0113,318.337 58,317.5C 57.3131,315.432 57.4798,313.432 58.5,311.5C 55.5586,308.457 55.8919,305.957 59.5,304C 59,303.5 58.5,303 58,302.5C 56.1406,303.645 55.3073,305.312 55.5,307.5C 55.7639,311.009 56.0973,314.509 56.5,318C 55.2068,318.49 53.8734,318.657 52.5,318.5C 46.6019,310.087 47.2686,302.253 54.5,295C 55.448,294.517 56.448,294.351 57.5,294.5 Z"/></g>
<g><path style="opacity:1" fill="#2e283e" d="M 58.5,296.5 C 90.8333,296.5 123.167,296.5 155.5,296.5C 155.092,297.643 154.425,298.643 153.5,299.5C 151.556,298.811 149.556,298.311 147.5,298C 117.664,297.832 87.9972,297.332 58.5,296.5 Z"/></g>
<g><path style="opacity:1" fill="#9451a0" d="M 399.5,301.5 C 400.606,305.803 401.606,310.136 402.5,314.5C 407.398,314.064 412.065,315.231 416.5,318C 416,318.5 415.5,319 415,319.5C 410.654,316.141 406.154,315.808 401.5,318.5C 397.633,315.781 393.299,314.448 388.5,314.5C 383.176,314.597 378.843,316.597 375.5,320.5C 374.833,320.5 374.167,320.5 373.5,320.5C 376.255,312.608 381.922,308.941 390.5,309.5C 390.238,308.022 390.571,306.689 391.5,305.5C 392.736,306.246 394.07,306.579 395.5,306.5C 395.149,303.762 394.482,301.096 393.5,298.5C 394.137,296.697 395.303,295.364 397,294.5C 397.902,296.927 398.736,299.26 399.5,301.5 Z"/></g>
<g><path style="opacity:1" fill="#56506a" d="M 224.5,303.5 C 225.5,304.167 226.5,304.833 227.5,305.5C 227.5,305.833 227.5,306.167 227.5,306.5C 229.5,310.5 231.5,314.5 233.5,318.5C 233.5,318.833 233.5,319.167 233.5,319.5C 232.911,323.297 231.911,323.297 230.5,319.5C 229.56,316.286 228.06,313.286 226,310.5C 225.023,308.26 224.523,305.927 224.5,303.5 Z"/></g>
<g><path style="opacity:0.157" fill="#9f6ea7" d="M 277.5,299.5 C 278.167,299.5 278.833,299.5 279.5,299.5C 281.873,306.017 283.873,312.683 285.5,319.5C 282.657,312.984 279.99,306.317 277.5,299.5 Z"/></g>
<g><path style="opacity:0.078" fill="#b1aab4" d="M 523.5,305.5 C 524.222,305.918 524.722,306.584 525,307.5C 525.383,306.944 525.883,306.611 526.5,306.5C 526.064,308.746 525.397,310.913 524.5,313C 525.056,313.383 525.389,313.883 525.5,314.5C 524.5,314.5 523.5,314.5 522.5,314.5C 523.403,311.609 523.736,308.609 523.5,305.5 Z"/></g>
<g><path style="opacity:1" fill="#475258" d="M 97.5,309.5 C 107.522,309.168 117.522,309.501 127.5,310.5C 122.5,310.833 117.5,311.167 112.5,311.5C 107.119,311.494 102.119,310.828 97.5,309.5 Z"/></g>
<g><path style="opacity:0.384" fill="#8e5b94" d="M 276.5,297.5 C 272.194,305.124 267.527,312.457 262.5,319.5C 262.983,316.342 263.983,313.342 265.5,310.5C 266.931,309.22 267.598,307.553 267.5,305.5C 271.325,304.078 273.659,301.245 274.5,297C 275.437,296.308 276.103,296.475 276.5,297.5 Z"/></g>
<g><path style="opacity:0.545" fill="#7a5d7d" d="M 487.5,312.5 C 480.5,312.5 473.5,312.5 466.5,312.5C 473.5,309.833 480.5,309.833 487.5,312.5 Z"/></g>
<g><path style="opacity:1" fill="#b87d98" d="M 219.5,309.5 C 220.167,309.5 220.5,309.833 220.5,310.5C 216.434,314.383 212.1,318.05 207.5,321.5C 207.703,319.956 208.37,318.622 209.5,317.5C 213.165,315.159 216.499,312.493 219.5,309.5 Z"/></g>
<g><path style="opacity:0.094" fill="#949499" d="M 47.5,317.5 C 43.3528,318.325 39.0195,318.825 34.5,319C 38.0252,319.179 41.3586,319.679 44.5,320.5C 40.8333,320.5 37.1667,320.5 33.5,320.5C 33.5,319.5 33.5,318.5 33.5,317.5C 38.1667,317.5 42.8333,317.5 47.5,317.5 Z"/></g>
<g><path style="opacity:1" fill="#5e3264" d="M 466.5,312.5 C 473.5,312.5 480.5,312.5 487.5,312.5C 484.089,313.58 482.089,315.914 481.5,319.5C 485.415,319.753 489.081,319.087 492.5,317.5C 492.167,318.167 491.833,318.833 491.5,319.5C 482.764,325.401 473.764,325.901 464.5,321C 462.393,319.736 461.393,317.903 461.5,315.5C 462.401,313.273 464.067,312.273 466.5,312.5 Z"/></g>
<g><path style="opacity:1" fill="#44314e" d="M 487.5,312.5 C 488.959,312.433 490.292,312.766 491.5,313.5C 491.833,314.833 492.167,316.167 492.5,317.5C 489.081,319.087 485.415,319.753 481.5,319.5C 482.089,315.914 484.089,313.58 487.5,312.5 Z"/></g>
<g><path style="opacity:1" fill="#404d53" d="M 168.5,296.5 C 169.88,296.962 170.547,297.962 170.5,299.5C 169.773,303.677 170.106,307.843 171.5,312C 171.056,313.762 170.556,313.595 170,311.5C 169.601,311.728 169.435,312.062 169.5,312.5C 168.731,314.667 167.731,316.834 166.5,319C 131.331,319.831 96.3309,319.664 61.5,318.5C 61.4894,316.983 60.8228,315.816 59.5,315C 60.4296,314.009 61.5962,313.509 63,313.5C 67.309,314.67 67.1423,316.17 62.5,318C 96.8333,318.667 131.167,318.667 165.5,318C 163.22,317.767 161.22,316.934 159.5,315.5C 161.315,313.306 163.482,312.972 166,314.5C 166.494,312.866 166.66,311.199 166.5,309.5C 164.801,309.66 163.134,309.494 161.5,309C 160.289,307.887 160.289,306.72 161.5,305.5C 167.424,305.324 169.758,302.324 168.5,296.5 Z"/></g>
<g><path style="opacity:1" fill="#475863" d="M 61.5,318.5 C 96.3309,319.664 131.331,319.831 166.5,319C 167.731,316.834 168.731,314.667 169.5,312.5C 170.761,314.486 170.428,316.319 168.5,318C 170.545,318.49 172.545,318.323 174.5,317.5C 183.624,317.302 187.291,321.802 185.5,331C 185.32,336.111 184.653,341.111 183.5,346C 133.833,346.667 84.1667,346.667 34.5,346C 33.7476,345.329 33.4142,344.496 33.5,343.5C 38.3222,344.065 42.8222,343.399 47,341.5C 47.6667,334.833 47.6667,328.167 47,321.5C 46.3292,320.748 45.4959,320.414 44.5,320.5C 41.3586,319.679 38.0252,319.179 34.5,319C 39.0195,318.825 43.3528,318.325 47.5,317.5C 49.2161,317.629 50.8828,317.962 52.5,318.5C 53.8734,318.657 55.2068,318.49 56.5,318C 56.0973,314.509 55.7639,311.009 55.5,307.5C 55.3073,305.312 56.1406,303.645 58,302.5C 58.5,303 59,303.5 59.5,304C 55.8919,305.957 55.5586,308.457 58.5,311.5C 57.4798,313.432 57.3131,315.432 58,317.5C 59.0113,318.337 60.1779,318.67 61.5,318.5 Z"/></g>
<g><path style="opacity:1" fill="#b372b0" d="M 213.5,298.5 C 215.223,300.253 216.723,302.253 218,304.5C 219.009,306.025 219.509,307.692 219.5,309.5C 216.499,312.493 213.165,315.159 209.5,317.5C 208.37,318.622 207.703,319.956 207.5,321.5C 206.211,325.377 205.544,329.377 205.5,333.5C 205.289,336.486 205.956,339.153 207.5,341.5C 207.5,342.833 207.5,344.167 207.5,345.5C 204.5,345.5 201.5,345.5 198.5,345.5C 196.412,343.664 195.079,341.331 194.5,338.5C 195.833,338.5 197.167,338.5 198.5,338.5C 198.59,343.934 201.257,345.601 206.5,343.5C 205.758,342.713 204.925,342.047 204,341.5C 202.473,332.631 203.807,324.298 208,316.5C 213.029,313.792 215.529,309.459 215.5,303.5C 214.127,303.343 212.793,303.51 211.5,304C 210.511,306.158 208.844,307.325 206.5,307.5C 209.239,304.767 211.573,301.767 213.5,298.5 Z"/></g>
<g><path style="opacity:1" fill="#bc72c4" d="M 367.5,322.5 C 365.819,324.008 363.819,325.008 361.5,325.5C 354.878,326.325 348.211,326.325 341.5,325.5C 343.117,324.028 345.117,323.361 347.5,323.5C 349.652,324.038 351.652,324.538 353.5,325C 353.649,322.708 354.149,320.208 355,317.5C 355.833,316.5 356.667,315.5 357.5,314.5C 359.043,317.086 360.709,319.586 362.5,322C 364.134,322.494 365.801,322.66 367.5,322.5 Z"/></g>
<g><path style="opacity:1" fill="#ba838d" d="M 367.5,322.5 C 369.833,322.5 372.167,322.5 374.5,322.5C 374.851,325.903 375.518,329.237 376.5,332.5C 374.603,330.302 373.603,327.636 373.5,324.5C 369.281,323.979 365.614,325.146 362.5,328C 357.98,328.814 353.646,328.647 349.5,327.5C 353.182,327.665 356.848,327.499 360.5,327C 361.056,326.617 361.389,326.117 361.5,325.5C 363.819,325.008 365.819,324.008 367.5,322.5 Z"/></g>
<g><path style="opacity:1" fill="#b8799a" d="M 245.5,338.5 C 245.167,338.5 244.833,338.5 244.5,338.5C 242.617,334.723 241.284,330.723 240.5,326.5C 241.5,326.5 242.5,326.5 243.5,326.5C 243.739,324.533 243.406,322.699 242.5,321C 239.649,319.711 236.649,319.211 233.5,319.5C 233.5,319.167 233.5,318.833 233.5,318.5C 244.408,317.071 247.741,321.404 243.5,331.5C 244.894,333.646 245.56,335.979 245.5,338.5 Z"/></g>
<g><path style="opacity:1" fill="#b78777" d="M 376.5,332.5 C 378.966,336.018 379.966,340.018 379.5,344.5C 356.833,344.5 334.167,344.5 311.5,344.5C 311.5,343.5 311.5,342.5 311.5,341.5C 312.203,339.284 313.536,337.451 315.5,336C 323.544,332.972 331.544,329.972 339.5,327C 342.888,326.341 346.221,326.508 349.5,327.5C 353.646,328.647 357.98,328.814 362.5,328C 365.614,325.146 369.281,323.979 373.5,324.5C 373.603,327.636 374.603,330.302 376.5,332.5 Z"/></g>
<g><path style="opacity:1" fill="#a16a99" d="M 373.5,320.5 C 374.167,320.5 374.833,320.5 375.5,320.5C 377.269,328.693 379.602,336.693 382.5,344.5C 403.5,345.167 424.5,345.833 445.5,346.5C 423.833,346.5 402.167,346.5 380.5,346.5C 380.672,345.508 380.338,344.842 379.5,344.5C 379.966,340.018 378.966,336.018 376.5,332.5C 375.518,329.237 374.851,325.903 374.5,322.5C 372.167,322.5 369.833,322.5 367.5,322.5C 369.5,321.833 371.5,321.167 373.5,320.5 Z"/></g>
<g><path style="opacity:1" fill="#27363d" d="M 155.5,324.5 C 164.868,323.528 168.534,327.528 166.5,336.5C 165.354,337.145 164.354,337.978 163.5,339C 157.93,339.298 152.596,340.464 147.5,342.5C 147.446,339.033 148.946,336.366 152,334.5C 152.333,332.5 152.667,330.5 153,328.5C 154.481,327.529 155.315,326.196 155.5,324.5 Z"/></g>
<g><path style="opacity:1" fill="#d78ce5" d="M 416.5,314.5 C 418.129,315.625 419.629,316.959 421,318.5C 420.934,321.578 421.101,324.578 421.5,327.5C 425.469,324.602 429.136,324.936 432.5,328.5C 433.167,325.833 433.833,323.167 434.5,320.5C 436.909,319.299 438.909,317.633 440.5,315.5C 440.833,315.833 441.167,316.167 441.5,316.5C 439.992,318.507 438.158,320.174 436,321.5C 435.824,324.882 435.324,328.215 434.5,331.5C 431.914,329.957 429.414,328.291 427,326.5C 418.893,331.795 416.726,329.961 420.5,321C 418.93,318.941 417.597,316.774 416.5,314.5 Z"/></g>
<g><path style="opacity:1" fill="#475763" d="M 522.5,314.5 C 523.5,314.5 524.5,314.5 525.5,314.5C 528.898,314.18 532.232,314.513 535.5,315.5C 537.01,323.759 538.01,332.092 538.5,340.5C 538.5,342.167 538.5,343.833 538.5,345.5C 529.5,345.5 520.5,345.5 511.5,345.5C 511.5,342.833 511.5,340.167 511.5,337.5C 511.968,330.054 513.135,322.721 515,315.5C 517.381,314.565 519.881,314.232 522.5,314.5 Z"/></g>
<g><path style="opacity:1" fill="#b777a0" d="M 341.5,325.5 C 348.211,326.325 354.878,326.325 361.5,325.5C 361.389,326.117 361.056,326.617 360.5,327C 356.848,327.499 353.182,327.665 349.5,327.5C 346.221,326.508 342.888,326.341 339.5,327C 331.544,329.972 323.544,332.972 315.5,336C 313.536,337.451 312.203,339.284 311.5,341.5C 310.363,342.789 309.03,343.789 307.5,344.5C 309.899,339.265 313.566,335.098 318.5,332C 326.296,330.013 333.963,327.847 341.5,325.5 Z"/></g>
<g><path style="opacity:1" fill="#b16abb" d="M 227.5,306.5 C 228.496,306.414 229.329,306.748 230,307.5C 230.765,310.196 231.932,312.696 233.5,315C 243.145,314.397 247.978,318.897 248,328.5C 249.113,330.329 250.613,331.163 252.5,331C 254.017,328.239 253.184,326.406 250,325.5C 249.51,324.207 249.343,322.873 249.5,321.5C 251.167,321.5 252.833,321.5 254.5,321.5C 254.312,323.103 254.812,324.437 256,325.5C 257.757,322.903 259.924,320.903 262.5,319.5C 258.167,326.833 253.833,334.167 249.5,341.5C 248.833,341.5 248.167,341.5 247.5,341.5C 246.094,341.027 245.427,340.027 245.5,338.5C 245.56,335.979 244.894,333.646 243.5,331.5C 247.741,321.404 244.408,317.071 233.5,318.5C 231.5,314.5 229.5,310.5 227.5,306.5 Z"/></g>
<g><path style="opacity:1" fill="#ab68b5" d="M 453.5,305.5 C 455.417,308.804 456.584,312.471 457,316.5C 457.798,325.213 457.464,333.88 456,342.5C 455.682,344.061 454.849,345.228 453.5,346C 450.854,346.497 448.187,346.664 445.5,346.5C 424.5,345.833 403.5,345.167 382.5,344.5C 406.533,344.804 430.533,344.471 454.5,343.5C 453.754,330.816 453.42,318.149 453.5,305.5 Z"/></g>
<g><path style="opacity:1" fill="#31424b" d="M 98.5,326.5 C 100.672,326.837 102.505,327.837 104,329.5C 104.95,328.978 105.784,328.311 106.5,327.5C 107.919,329.336 109.086,331.336 110,333.5C 110.333,331.833 110.667,330.167 111,328.5C 111.821,331.554 111.655,334.554 110.5,337.5C 109.081,335.664 107.914,333.664 107,331.5C 106.415,338.635 105.248,338.968 103.5,332.5C 102.376,333.914 101.376,335.414 100.5,337C 99.1667,337.667 97.8333,337.667 96.5,337C 94.957,333.093 95.6237,329.593 98.5,326.5 Z"/></g>
<g><path style="opacity:0.737" fill="#a975ad" d="M 285.5,319.5 C 290.417,327.371 293.75,336.037 295.5,345.5C 298.833,345.5 302.167,345.5 305.5,345.5C 305.5,345.833 305.5,346.167 305.5,346.5C 301.434,346.307 297.434,346.64 293.5,347.5C 293.5,346.5 293.5,345.5 293.5,344.5C 290.833,336.167 288.167,327.833 285.5,319.5 Z"/></g>
<g><path style="opacity:1" fill="#f1f3f4" d="M 33.5,320.5 C 37.1667,320.5 40.8333,320.5 44.5,320.5C 45.4959,320.414 46.3292,320.748 47,321.5C 47.6667,328.167 47.6667,334.833 47,341.5C 42.8222,343.399 38.3222,344.065 33.5,343.5C 33.599,335.81 33.599,328.144 33.5,320.5 Z"/></g>
<g><path style="opacity:1" fill="#b769c4" d="M 461.5,315.5 C 461.393,317.903 462.393,319.736 464.5,321C 473.764,325.901 482.764,325.401 491.5,319.5C 493.442,324.056 494.108,329.056 493.5,334.5C 493.017,343.773 492.017,353.106 490.5,362.5C 483.791,365.383 476.791,366.216 469.5,365C 466.92,363.214 464.253,361.714 461.5,360.5C 461.5,355.833 461.5,351.167 461.5,346.5C 466.213,358.326 471.546,358.493 477.5,347C 487.199,346.636 490.699,341.803 488,332.5C 486.736,330.393 484.903,329.393 482.5,329.5C 482.34,331.199 482.506,332.866 483,334.5C 488.248,336.981 488.748,340.148 484.5,344C 482.635,345.301 480.635,345.635 478.5,345C 477.712,341.924 477.212,338.758 477,335.5C 473.595,333.89 472.095,335.056 472.5,339C 472.801,341.794 473.801,344.294 475.5,346.5C 474.192,353.241 470.692,354.907 465,351.5C 463.847,348.289 463.18,344.956 463,341.5C 462.59,342.901 462.09,344.234 461.5,345.5C 460.508,338.018 460.175,330.352 460.5,322.5C 460.198,319.941 460.532,317.607 461.5,315.5 Z"/></g>
<g><path style="opacity:1" fill="#d690e2" d="M 461.5,346.5 C 461.5,346.167 461.5,345.833 461.5,345.5C 462.09,344.234 462.59,342.901 463,341.5C 463.18,344.956 463.847,348.289 465,351.5C 470.692,354.907 474.192,353.241 475.5,346.5C 473.801,344.294 472.801,341.794 472.5,339C 472.095,335.056 473.595,333.89 477,335.5C 477.212,338.758 477.712,341.924 478.5,345C 480.635,345.635 482.635,345.301 484.5,344C 488.748,340.148 488.248,336.981 483,334.5C 482.506,332.866 482.34,331.199 482.5,329.5C 484.903,329.393 486.736,330.393 488,332.5C 490.699,341.803 487.199,346.636 477.5,347C 471.546,358.493 466.213,358.326 461.5,346.5 Z"/></g>
<g><path style="opacity:1" fill="#2e3f49" d="M 76.5,326.5 C 77.9953,326.415 78.9953,327.081 79.5,328.5C 78.1745,328.205 76.8412,328.705 75.5,330C 80.453,332.689 80.6197,335.522 76,338.5C 73.5716,337.355 71.2383,336.022 69,334.5C 67.416,334.988 66.2494,335.988 65.5,337.5C 65.1667,337.167 64.8333,336.833 64.5,336.5C 66.3561,333.591 68.0227,330.591 69.5,327.5C 71.0538,329.933 71.7204,332.6 71.5,335.5C 73.5412,335.854 75.3745,335.854 77,335.5C 76.5375,333.474 75.7041,331.474 74.5,329.5C 74.9424,328.261 75.6091,327.261 76.5,326.5 Z"/></g>
<g><path style="opacity:1" fill="#b86cc5" d="M 194.5,338.5 C 192.676,329.119 194.51,320.452 200,312.5C 201.758,310.235 203.925,308.568 206.5,307.5C 208.844,307.325 210.511,306.158 211.5,304C 212.793,303.51 214.127,303.343 215.5,303.5C 215.529,309.459 213.029,313.792 208,316.5C 203.807,324.298 202.473,332.631 204,341.5C 204.925,342.047 205.758,342.713 206.5,343.5C 201.257,345.601 198.59,343.934 198.5,338.5C 197.167,338.5 195.833,338.5 194.5,338.5 Z"/></g>
<g><path style="opacity:1" fill="#b68676" d="M 220.5,310.5 C 220.833,310.5 221.167,310.5 221.5,310.5C 223.833,314.167 226.833,317.167 230.5,319.5C 231.911,323.297 232.911,323.297 233.5,319.5C 236.649,319.211 239.649,319.711 242.5,321C 243.406,322.699 243.739,324.533 243.5,326.5C 242.5,326.5 241.5,326.5 240.5,326.5C 241.284,330.723 242.617,334.723 244.5,338.5C 244.5,339.167 244.5,339.833 244.5,340.5C 243.5,340.5 242.5,340.5 241.5,340.5C 240.508,340.328 239.842,340.662 239.5,341.5C 234.657,341.117 229.991,341.783 225.5,343.5C 222.055,340.425 220.055,341.092 219.5,345.5C 214.901,345.862 210.901,344.529 207.5,341.5C 205.956,339.153 205.289,336.486 205.5,333.5C 205.544,329.377 206.211,325.377 207.5,321.5C 212.1,318.05 216.434,314.383 220.5,310.5 Z"/></g>
<g><path style="opacity:1" fill="#ab7e8d" d="M 207.5,341.5 C 210.901,344.529 214.901,345.862 219.5,345.5C 220.055,341.092 222.055,340.425 225.5,343.5C 229.991,341.783 234.657,341.117 239.5,341.5C 239.5,341.833 239.5,342.167 239.5,342.5C 235.04,341.885 231.04,342.885 227.5,345.5C 228.602,346.176 229.602,346.842 230.5,347.5C 219.641,347.488 208.974,346.821 198.5,345.5C 201.5,345.5 204.5,345.5 207.5,345.5C 207.5,344.167 207.5,342.833 207.5,341.5 Z"/></g>
<g><path style="opacity:0.863" fill="#9f7b74" d="M 311.5,341.5 C 311.5,342.5 311.5,343.5 311.5,344.5C 334.167,344.5 356.833,344.5 379.5,344.5C 380.338,344.842 380.672,345.508 380.5,346.5C 355.5,346.5 330.5,346.5 305.5,346.5C 305.5,346.167 305.5,345.833 305.5,345.5C 306.492,345.672 307.158,345.338 307.5,344.5C 309.03,343.789 310.363,342.789 311.5,341.5 Z"/></g>
<g><path style="opacity:0.153" fill="#c8bec9" d="M 510.5,343.5 C 510.5,344.5 510.5,345.5 510.5,346.5C 505.547,347.329 500.547,347.663 495.5,347.5C 494.89,346.609 494.557,345.609 494.5,344.5C 499.855,344.338 505.188,344.005 510.5,343.5 Z"/></g>
<g><path style="opacity:0.035" fill="#d0cdce" d="M 543.5,344.5 C 552.173,344.334 560.84,344.5 569.5,345C 565.007,346.141 560.34,346.641 555.5,346.5C 551.167,346.333 546.833,346.167 542.5,346C 543.056,345.617 543.389,345.117 543.5,344.5 Z"/></g>
<g><path style="opacity:0.275" fill="#9c709a" d="M 239.5,342.5 C 239.5,343.833 239.5,345.167 239.5,346.5C 236.43,346.368 233.43,346.701 230.5,347.5C 229.602,346.842 228.602,346.176 227.5,345.5C 231.04,342.885 235.04,341.885 239.5,342.5 Z"/></g>
<g><path style="opacity:1" fill="#505662" d="M 244.5,338.5 C 244.833,338.5 245.167,338.5 245.5,338.5C 245.427,340.027 246.094,341.027 247.5,341.5C 248.811,344.135 250.478,346.469 252.5,348.5C 251.929,349.973 251.929,351.64 252.5,353.5C 252.53,354.497 252.03,355.164 251,355.5C 248.185,354.065 245.351,352.732 242.5,351.5C 241.263,350.035 240.263,348.368 239.5,346.5C 239.5,345.167 239.5,343.833 239.5,342.5C 239.5,342.167 239.5,341.833 239.5,341.5C 239.842,340.662 240.508,340.328 241.5,340.5C 241.389,341.117 241.056,341.617 240.5,342C 241.874,344.583 243.374,347.083 245,349.5C 245.925,348.953 246.758,348.287 247.5,347.5C 246.212,345.261 245.212,342.928 244.5,340.5C 244.5,339.833 244.5,339.167 244.5,338.5 Z"/></g>
<g><path style="opacity:0.675" fill="#c8c0c8" d="M 247.5,341.5 C 248.167,341.5 248.833,341.5 249.5,341.5C 252.938,342.823 256.771,343.49 261,343.5C 271.921,344.238 282.754,344.571 293.5,344.5C 293.5,345.5 293.5,346.5 293.5,347.5C 280.075,348.33 266.409,348.663 252.5,348.5C 250.478,346.469 248.811,344.135 247.5,341.5 Z"/></g>
<g><path style="opacity:0.118" fill="#767985" d="M 511.5,337.5 C 511.5,340.167 511.5,342.833 511.5,345.5C 520.5,345.5 529.5,345.5 538.5,345.5C 538.5,343.833 538.5,342.167 538.5,340.5C 539.461,342.265 539.795,344.265 539.5,346.5C 529.833,346.5 520.167,346.5 510.5,346.5C 510.5,345.5 510.5,344.5 510.5,343.5C 510.205,341.265 510.539,339.265 511.5,337.5 Z"/></g>
<g><path style="opacity:0.259" fill="#b085b5" d="M 491.5,313.5 C 492.966,314.347 493.8,315.68 494,317.5C 494.5,326.494 494.666,335.494 494.5,344.5C 494.557,345.609 494.89,346.609 495.5,347.5C 494.833,351.833 494.167,356.167 493.5,360.5C 493.5,351.833 493.5,343.167 493.5,334.5C 494.108,329.056 493.442,324.056 491.5,319.5C 491.833,318.833 492.167,318.167 492.5,317.5C 492.167,316.167 491.833,314.833 491.5,313.5 Z"/></g>
<g><path style="opacity:1" fill="#28363b" d="M 241.5,340.5 C 242.5,340.5 243.5,340.5 244.5,340.5C 245.212,342.928 246.212,345.261 247.5,347.5C 246.758,348.287 245.925,348.953 245,349.5C 243.374,347.083 241.874,344.583 240.5,342C 241.056,341.617 241.389,341.117 241.5,340.5 Z"/></g>
<g><path style="opacity:0.78" fill="#af77b9" d="M 460.5,322.5 C 460.175,330.352 460.508,338.018 461.5,345.5C 461.5,345.833 461.5,346.167 461.5,346.5C 461.5,351.167 461.5,355.833 461.5,360.5C 464.253,361.714 466.92,363.214 469.5,365C 476.791,366.216 483.791,365.383 490.5,362.5C 492.017,353.106 493.017,343.773 493.5,334.5C 493.5,343.167 493.5,351.833 493.5,360.5C 492.522,363.971 490.188,365.805 486.5,366C 480.167,366.667 473.833,366.667 467.5,366C 461.658,364.509 459.158,360.676 460,354.5C 459.175,343.659 459.341,332.992 460.5,322.5 Z"/></g>
<g><path style="opacity:0.384" fill="#c8c0c5" d="M 302.5,353.5 C 298.818,353.335 295.152,353.501 291.5,354C 291.167,354.333 290.833,354.667 290.5,355C 294.5,355.667 294.5,356.333 290.5,357C 291.731,358.183 291.731,359.349 290.5,360.5C 281.461,362.843 272.461,365.343 263.5,368C 256.06,368.928 248.726,368.594 241.5,367C 242.737,366.768 243.737,366.268 244.5,365.5C 249.298,366.104 253.965,366.437 258.5,366.5C 262.888,365.153 267.221,363.653 271.5,362C 263.994,361.955 256.661,362.789 249.5,364.5C 249.918,363.778 250.584,363.278 251.5,363C 242.167,362.667 232.833,362.333 223.5,362C 227.167,361.667 230.833,361.333 234.5,361C 230.579,360.797 226.745,360.297 223,359.5C 222.395,361.481 221.395,361.815 220,360.5C 218.601,361.227 217.101,361.727 215.5,362C 215.833,362.333 216.167,362.667 216.5,363C 221.589,363.303 226.256,363.803 230.5,364.5C 222.157,365.61 213.823,366.943 205.5,368.5C 201.5,368.5 197.5,368.5 193.5,368.5C 193.5,366.833 193.5,365.167 193.5,363.5C 208.018,360.71 222.018,356.71 235.5,351.5C 238.953,351.592 241.786,352.925 244,355.5C 244.3,353.934 243.8,352.601 242.5,351.5C 245.351,352.732 248.185,354.065 251,355.5C 252.03,355.164 252.53,354.497 252.5,353.5C 254.567,354.593 255.234,354.093 254.5,352C 256.355,351.578 258.189,351.078 260,350.5C 267.996,350.995 276.162,351.662 284.5,352.5C 289.167,351.833 293.833,351.167 298.5,350.5C 300.261,351.035 301.594,352.035 302.5,353.5 Z M 244.5,365.5 C 240.486,365.666 236.486,365.499 232.5,365C 238.157,364.501 243.824,364.334 249.5,364.5C 256.661,362.789 263.994,361.955 271.5,362C 267.221,363.653 262.888,365.153 258.5,366.5C 253.965,366.437 249.298,366.104 244.5,365.5 Z"/></g>
<g><path style="opacity:0.76" fill="#aea6ac" d="M 302.5,353.5 C 303.38,355.389 303.38,357.389 302.5,359.5C 287.782,363.013 273.116,366.846 258.5,371C 240.641,371.192 222.975,370.359 205.5,368.5C 213.823,366.943 222.157,365.61 230.5,364.5C 226.256,363.803 221.589,363.303 216.5,363C 216.167,362.667 215.833,362.333 215.5,362C 217.101,361.727 218.601,361.227 220,360.5C 221.395,361.815 222.395,361.481 223,359.5C 226.745,360.297 230.579,360.797 234.5,361C 230.833,361.333 227.167,361.667 223.5,362C 232.833,362.333 242.167,362.667 251.5,363C 250.584,363.278 249.918,363.778 249.5,364.5C 243.824,364.334 238.157,364.501 232.5,365C 236.486,365.499 240.486,365.666 244.5,365.5C 243.737,366.268 242.737,366.768 241.5,367C 248.726,368.594 256.06,368.928 263.5,368C 272.461,365.343 281.461,362.843 290.5,360.5C 291.731,359.349 291.731,358.183 290.5,357C 294.5,356.333 294.5,355.667 290.5,355C 290.833,354.667 291.167,354.333 291.5,354C 295.152,353.501 298.818,353.335 302.5,353.5 Z M 244.5,365.5 C 240.486,365.666 236.486,365.499 232.5,365C 238.157,364.501 243.824,364.334 249.5,364.5C 256.661,362.789 263.994,361.955 271.5,362C 267.221,363.653 262.888,365.153 258.5,366.5C 253.965,366.437 249.298,366.104 244.5,365.5 Z"/></g>
</svg>
